<svg id="svgContent" version="1.1" width="105" height="49" style="position: relative; width: 105px; height: 49px; margin:auto; user-select: none; cursor: default;" xmlns="http://www.w3.org/2000/svg" xmlns:xlink="http://www.w3.org/1999/xlink" viewBox="0 0 105 49">
<g id="svgPath">
	<path
		d="M 73.365 2.681 C 72.484 6.191, 74.457 9.603, 79.667 13.576 L 83.799 16.728 71.837 17.428 C 65.258 17.813, 46.794 18.036, 30.806 17.923 C -1.680 17.694, -0.419 17.412, 0.191 24.767 L 0.500 28.500 10.500 29.258 C 16 29.674, 34.900 29.731, 52.500 29.384 L 84.500 28.752 79.791 33.790 C 74.528 39.419, 73.404 42.303, 74.920 46.289 C 75.799 48.603, 76.527 49, 79.883 49 C 83.551 49, 84.394 48.382, 92.408 39.811 C 97.134 34.757, 101 30.048, 101 29.346 C 101 27.858, 104.441 25.775, 105.369 26.702 C 105.716 27.049, 105.993 25.346, 105.985 22.917 C 105.975 20.163, 105.655 18.996, 105.134 19.817 C 104.524 20.779, 103.970 20.342, 103.082 18.199 C 101.592 14.602, 97.574 10.790, 88.821 4.670 C 83.540 0.977, 81.294 0, 78.090 0 C 74.529 0, 73.957 0.325, 73.365 2.681 M 0.272 24 C 0.272 26.475, 0.467 27.488, 0.706 26.250 C 0.944 25.012, 0.944 22.988, 0.706 21.750 C 0.467 20.512, 0.272 21.525, 0.272 24"
		stroke="none" fill="#841cdc" fill-rule="evenodd"></path>
</g>
</svg>