<svg id="svgContent" version="1.1" width="248" height="346" style="position: relative; width: 248px; height: 346px; margin:auto; user-select: none; cursor: default;" xmlns="http://www.w3.org/2000/svg" xmlns:xlink="http://www.w3.org/1999/xlink" viewBox="0 0 248 346">
<g id="svgPath">
	<path
		d="M 24 1.500 C 23.007 2.697, 23.007 3.303, 24 4.500 C 25.928 6.823, 27 6.287, 27 3 C 27 -0.287, 25.928 -0.823, 24 1.500 M 160.082 3.847 C 159.402 5.117, 159.453 6.053, 160.247 6.847 C 162.145 8.745, 163 8.172, 163 5 C 163 1.627, 161.572 1.063, 160.082 3.847 M 0.081 13.128 C 0.158 21.046, 0.237 21.337, 1.536 18.500 C 3.402 14.425, 3.382 7.562, 1.500 6 C 0.186 4.910, 0.010 5.793, 0.081 13.128 M 0.229 23.188 C 0.847 25.042, 3 25.349, 3 23.583 C 3 22.712, 2.288 22, 1.417 22 C 0.546 22, 0.011 22.534, 0.229 23.188 M 8.975 29.565 C 7.680 32.971, 7.735 33.535, 9.500 35 C 10.797 36.076, 11 35.618, 11 31.622 C 11 26.412, 10.404 25.806, 8.975 29.565 M 0 42 C 0 46.549, 0.199 47.080, 1.500 46 C 2.325 45.315, 3 43.515, 3 42 C 3 40.485, 2.325 38.685, 1.500 38 C 0.199 36.920, 0 37.451, 0 42 M 171.616 45.003 C 168.914 47.994, 168 49.889, 168 52.503 C 168 55.722, 167.761 56, 165 56 C 162.442 56, 162 56.380, 162 58.579 C 162 60.925, 162.272 61.099, 165 60.500 C 167.995 59.842, 168 59.849, 168 64.453 C 168 69.417, 169.807 74.768, 172.135 76.698 C 172.930 77.357, 177.725 78.209, 182.790 78.592 L 192 79.287 192 67.643 C 192 57.842, 191.757 56, 190.465 56 C 189.213 56, 189.138 55.611, 190.059 53.889 C 191.039 52.058, 190.689 51.266, 187.424 47.922 C 183.928 44.342, 178.516 41, 176.215 41 C 175.675 41, 173.605 42.801, 171.616 45.003 M 6.975 44.565 C 5.680 47.971, 5.735 48.535, 7.500 50 C 8.797 51.076, 9 50.618, 9 46.622 C 9 41.412, 8.404 40.806, 6.975 44.565 M 71.975 44.565 C 70.680 47.971, 70.735 48.535, 72.500 50 C 73.797 51.076, 74 50.618, 74 46.622 C 74 41.412, 73.404 40.806, 71.975 44.565 M 79.667 47.667 C 78.516 48.817, 78.938 50, 80.500 50 C 81.325 50, 82 49.325, 82 48.500 C 82 46.938, 80.817 46.516, 79.667 47.667 M 2.935 50.671 C 1.723 53.858, 2.035 56.179, 3.750 56.750 C 4.629 57.043, 5 55.805, 5 52.583 C 5 47.369, 4.401 46.814, 2.935 50.671 M 59 62 C 59 63.289, 59.506 63.998, 60.250 63.750 C 60.938 63.521, 61.500 62.733, 61.500 62 C 61.500 61.267, 60.938 60.479, 60.250 60.250 C 59.506 60.002, 59 60.711, 59 62 M 154.667 66.667 C 153.516 67.817, 153.938 69, 155.500 69 C 156.325 69, 157 68.325, 157 67.500 C 157 65.938, 155.817 65.516, 154.667 66.667 M 195.750 69.392 C 193.107 71.399, 193.530 74, 196.500 74 C 198.611 74, 199 73.533, 199 71 C 199 67.703, 198.379 67.396, 195.750 69.392 M 6.229 72.188 C 6.847 74.042, 9 74.349, 9 72.583 C 9 71.713, 8.287 71, 7.417 71 C 6.546 71, 6.011 71.534, 6.229 72.188 M 0.195 75.500 C 0.215 77.150, 0.439 77.704, 0.693 76.731 C 0.947 75.758, 0.930 74.408, 0.656 73.731 C 0.382 73.054, 0.175 73.850, 0.195 75.500 M 195.966 78.064 C 195.146 79.596, 195.168 80.498, 196.053 81.564 C 198.004 83.915, 199 83.217, 199 79.500 C 199 75.585, 197.637 74.941, 195.966 78.064 M 22 78.500 C 22 79.325, 22.675 80, 23.500 80 C 24.325 80, 25 79.325, 25 78.500 C 25 77.675, 24.325 77, 23.500 77 C 22.675 77, 22 77.675, 22 78.500 M 0.667 81.667 C -0.392 82.725, -0.106 89, 1 89 C 1.550 89, 2 87.200, 2 85 C 2 80.913, 1.834 80.499, 0.667 81.667 M 54 90.974 C 54 92.494, 59.571 95, 62.950 95 C 65.537 95, 66 94.620, 66 92.500 C 66 90.111, 65.733 90, 60 90 C 56.700 90, 54 90.438, 54 90.974 M 55.409 95.376 C 55.048 96.317, 55.041 97.374, 55.393 97.726 C 55.745 98.079, 56.566 97.834, 57.217 97.183 C 58.119 96.281, 58.122 95.722, 57.233 94.833 C 56.343 93.943, 55.909 94.072, 55.409 95.376 M 80.250 98.802 L 69 101.302 69 106.908 L 69 112.514 73.592 112.149 C 78.052 111.794, 78.542 110.562, 74.511 109.836 C 73.418 109.638, 72.372 108.695, 72.188 107.739 C 71.942 106.462, 72.517 106, 74.349 106 C 76.083 106, 78.099 107.450, 80.954 110.750 C 84.934 115.351, 85.056 115.704, 84.856 122 C 84.684 127.381, 84.936 128.556, 86.319 128.822 C 87.497 129.050, 87.984 128.460, 87.970 126.822 C 87.959 125.545, 88.237 121.968, 88.588 118.873 C 89.162 113.823, 89.438 113.302, 91.282 113.784 C 92.843 114.192, 93.194 113.947, 92.740 112.765 C 90.272 106.333, 89.792 103.035, 90.874 99.931 C 91.498 98.141, 91.894 96.591, 91.755 96.488 C 91.615 96.386, 86.438 97.427, 80.250 98.802 M 60.655 104.829 C 59.745 105.835, 59 107.275, 59 108.029 C 59 109.095, 58.733 109.133, 57.800 108.200 C 56.150 106.550, 55 106.697, 55 108.557 C 55 109.768, 55.931 110.047, 59.183 109.807 C 62.844 109.538, 63.530 109.095, 64.685 106.250 C 65.892 103.280, 65.847 103, 64.158 103 C 63.142 103, 61.565 103.823, 60.655 104.829 M 71 115.500 C 71 116.325, 71.450 117, 72 117 C 72.550 117, 73 116.325, 73 115.500 C 73 114.675, 72.550 114, 72 114 C 71.450 114, 71 114.675, 71 115.500 M 16 121.500 C 16.685 122.325, 17.810 123, 18.500 123 C 19.190 123, 20.315 122.325, 21 121.500 C 22.069 120.212, 21.715 120, 18.500 120 C 15.285 120, 14.931 120.212, 16 121.500 M 93 126.254 L 89.500 128.500 93.460 128.823 C 96.354 129.059, 97.768 128.671, 98.710 127.382 C 101.641 123.374, 98.464 122.747, 93 126.254 M 97.507 141.008 C 99.208 142.888, 99.442 142.910, 101.162 141.353 C 103.639 139.112, 103.553 139, 99.345 139 C 95.748 139, 95.719 139.032, 97.507 141.008 M 0 142.500 C 0 143.325, 0.177 144, 0.393 144 C 0.609 144, 1.045 143.325, 1.362 142.500 C 1.678 141.675, 1.501 141, 0.969 141 C 0.436 141, 0 141.675, 0 142.500 M 8 146.500 C 8 147.325, 8.675 148, 9.500 148 C 10.325 148, 11 147.325, 11 146.500 C 11 145.675, 10.325 145, 9.500 145 C 8.675 145, 8 145.675, 8 146.500 M 89 157.500 C 89 158.325, 89.675 159, 90.500 159 C 91.325 159, 92 158.325, 92 157.500 C 92 156.675, 91.325 156, 90.500 156 C 89.675 156, 89 156.675, 89 157.500 M 2 165 C 2 169.667, 2.167 170, 4.500 170 C 6.833 170, 7 169.667, 7 165 C 7 160.333, 6.833 160, 4.500 160 C 2.167 160, 2 160.333, 2 165 M 164 161.500 C 164 162.325, 164.675 163, 165.500 163 C 166.325 163, 167 162.325, 167 161.500 C 167 160.675, 166.325 160, 165.500 160 C 164.675 160, 164 160.675, 164 161.500 M 156 169 C 156 173.193, 156.298 174, 157.845 174 C 158.860 174, 160.512 173.092, 161.516 171.983 C 163.295 170.017, 163.269 169.890, 160.483 166.983 C 158.912 165.342, 157.260 164, 156.813 164 C 156.366 164, 156 166.250, 156 169 M 170.036 167.456 C 168.283 169.569, 169.638 171, 173.392 171 C 177.910 171, 178.512 169.978, 175.258 167.832 C 171.919 165.630, 171.573 165.605, 170.036 167.456 M 34 169.500 C 33.007 170.697, 33.007 171.303, 34 172.500 C 35.928 174.823, 37 174.287, 37 171 C 37 167.713, 35.928 167.177, 34 169.500 M 8 174.500 C 8 175.325, 8.675 176, 9.500 176 C 10.325 176, 11 175.325, 11 174.500 C 11 173.675, 10.325 173, 9.500 173 C 8.675 173, 8 173.675, 8 174.500 M 43.899 196.189 C 43.255 197.393, 42.501 202.343, 42.225 207.189 C 41.741 215.680, 41.800 216, 43.861 216 C 45.917 216, 46 215.571, 46 205 C 46 198.950, 45.791 194, 45.535 194 C 45.280 194, 44.543 194.985, 43.899 196.189 M -0 204.059 C -0 204.641, 0.450 204.840, 1 204.500 C 1.550 204.160, 2 203.684, 2 203.441 C 2 203.198, 1.550 203, 1 203 C 0.450 203, -0 203.477, -0 204.059 M 56 208.500 C 56 209.417, 56.484 210.005, 57.075 209.808 C 57.666 209.611, 58.150 209.022, 58.150 208.500 C 58.150 207.978, 57.666 207.389, 57.075 207.192 C 56.484 206.995, 56 207.583, 56 208.500 M 128.022 223.750 C 125.610 236.131, 124.691 234.450, 135.200 236.886 C 140.315 238.072, 145.584 239.329, 146.909 239.679 C 149.314 240.315, 149.317 240.303, 148.719 233.896 C 147.980 225.981, 147.259 224, 145.118 224 C 144.200 224, 140.761 222.664, 137.475 221.031 C 134.189 219.399, 130.969 218.049, 130.321 218.031 C 129.672 218.014, 128.638 220.588, 128.022 223.750 M 158.972 229.052 C 157.630 231.559, 158.052 235.196, 159.750 235.755 C 160.628 236.044, 161 234.803, 161 231.583 C 161 226.507, 160.601 226.008, 158.972 229.052 M 219 235 C 219 237.303, 219.451 238, 220.941 238 C 223.773 238, 224.453 236.158, 222.443 233.937 C 219.982 231.218, 219 231.521, 219 235 M 227.510 234.984 C 226.773 236.177, 227.709 238, 229.059 238 C 230.276 238, 230.284 235.293, 229.069 234.543 C 228.557 234.226, 227.856 234.425, 227.510 234.984 M 77 238.500 L 77 242 82.500 242 C 87.650 242, 88 241.846, 88 239.583 C 88 237.489, 87.325 237.021, 82.951 236.083 C 80.174 235.487, 77.699 235, 77.451 235 C 77.203 235, 77 236.575, 77 238.500 M 160 242.500 C 160 243.325, 160.675 244, 161.500 244 C 162.325 244, 163 243.325, 163 242.500 C 163 241.675, 162.325 241, 161.500 241 C 160.675 241, 160 241.675, 160 242.500 M 213.229 242.188 C 213.847 244.042, 216 244.349, 216 242.583 C 216 241.713, 215.287 241, 214.417 241 C 213.546 241, 213.011 241.534, 213.229 242.188 M 217.744 246.083 C 216.499 246.808, 216.167 247.818, 216.603 249.553 C 217.109 251.569, 216.846 252, 215.108 252 C 213.365 252, 213 252.607, 213 255.500 C 213 258.731, 213.233 259, 216.035 259 C 218.769 259, 218.963 258.800, 217.991 256.984 C 217.039 255.204, 217.269 254.896, 219.956 254.359 C 223.128 253.724, 223.674 252.117, 222.370 247.250 C 221.715 244.807, 220.474 244.494, 217.744 246.083 M 0.667 247.667 C -0.484 248.817, -0.062 250, 1.500 250 C 2.325 250, 3 249.325, 3 248.500 C 3 246.938, 1.817 246.516, 0.667 247.667 M 75.332 248.578 C 74.999 249.445, 75.463 250.892, 76.363 251.792 C 77.879 253.307, 78 253.191, 78 250.214 C 78 246.856, 76.375 245.859, 75.332 248.578 M 134 247.878 C 134 248.360, 134.675 249.315, 135.500 250 C 136.697 250.993, 137.303 250.993, 138.500 250 C 140.823 248.072, 140.287 247, 137 247 C 135.350 247, 134 247.395, 134 247.878 M 197.119 251.443 C 196.503 253.886, 196.010 257.374, 196.022 259.193 L 196.044 262.500 198 260 C 199.585 257.974, 199.960 257.832, 199.978 259.250 C 199.994 260.523, 200.818 261, 203 261 C 205.465 261, 206 260.589, 206 258.696 C 206 256.192, 200.609 247, 199.141 247 C 198.644 247, 197.734 248.999, 197.119 251.443 M 82.093 256.574 C 79.669 257.908, 76.856 259, 75.843 259 C 74.829 259, 74 259.450, 74 260 C 74 260.561, 76.771 261, 80.313 261 C 85.924 261, 86.924 260.688, 89.313 258.195 C 90.791 256.653, 92 255.078, 92 254.695 C 92 253.189, 86.268 254.276, 82.093 256.574 M 18.441 257.532 C 20.929 259.413, 23.422 259.401, 25 257.500 C 26.078 256.201, 25.592 256.004, 21.372 256.032 C 16.871 256.061, 16.648 256.175, 18.441 257.532 M 0 263.042 C 0 266.365, 0.465 269.628, 1.034 270.292 C 1.603 270.956, 2.714 272.400, 3.502 273.500 C 4.794 275.302, 4.940 274.687, 4.968 267.285 C 4.996 260.168, 4.742 258.932, 3.066 258.035 C 0.092 256.444, 0 256.594, 0 263.042 M 54 259.500 C 54 260.417, 54.484 261.005, 55.075 260.808 C 55.666 260.611, 56.150 260.022, 56.150 259.500 C 56.150 258.978, 55.666 258.389, 55.075 258.192 C 54.484 257.995, 54 258.583, 54 259.500 M 8.500 267 C 7.684 268.320, 8.880 270.192, 10.069 269.457 C 11.284 268.707, 11.276 266, 10.059 266 C 9.541 266, 8.840 266.450, 8.500 267 M 28.567 279.913 C 26.766 281.915, 26.747 282.176, 28.293 283.722 C 30.429 285.858, 31.221 284.998, 30.821 280.978 L 30.500 277.763 28.567 279.913 M 2.667 279.667 C 2.300 280.033, 2 281.185, 2 282.226 C 2 283.266, 1.550 283.840, 1 283.500 C 0.341 283.093, -0 293.656, -0 314.441 L 0 346 12.687 346 L 25.374 346 22.509 343.009 L 19.644 340.019 15.189 342.630 C 12.738 344.066, 11.045 344.736, 11.426 344.120 C 11.824 343.476, 11.455 343, 10.559 343 C 9.702 343, 9 342.388, 9 341.639 C 9 340.286, 15.574 339.028, 22.750 339.009 C 24.999 339.003, 26 338.528, 26 337.468 C 26 334.570, 23.166 329.159, 21.057 328.030 C 17.831 326.304, 19.374 325.263, 26.248 324.530 C 34.550 323.644, 38.801 322.239, 40.008 319.986 C 41.770 316.693, 41.221 315.706, 37.987 316.353 C 35.177 316.915, 35.015 316.787, 35.595 314.478 C 36.213 312.013, 36.178 312, 29.049 312 C 24.526 312, 22.110 311.631, 22.500 311 C 22.868 310.405, 21.677 310, 19.559 310 C 17.602 310, 16 310.450, 16 311 C 16 311.550, 14.762 311.989, 13.250 311.975 C 11.428 311.958, 9.043 310.575, 6.184 307.877 C 1.985 303.915, 1.916 303.750, 3.661 301.823 C 5.133 300.195, 6.263 299.947, 9.977 300.435 C 14.475 301.025, 14.485 301.020, 11.750 299.482 C 8.346 297.568, 7.824 293, 11.010 293 C 12.115 293, 13.790 293.900, 14.732 295 C 15.674 296.100, 17.469 297, 18.722 297 C 20.746 297, 21 296.511, 21 292.621 C 21 288.699, 20.687 288.113, 18 287 C 15.504 285.966, 15 285.190, 15 282.379 C 15 280.520, 14.801 279, 14.557 279 C 14.314 279, 12.569 279.912, 10.681 281.026 L 7.247 283.052 6.717 281.026 C 6.202 279.055, 4.013 278.321, 2.667 279.667 M 164 284.500 C 163.007 285.697, 163.007 286.303, 164 287.500 C 165.928 289.823, 167 289.287, 167 286 C 167 282.713, 165.928 282.177, 164 284.500 M 69.224 287.006 C 66.913 289.159, 67.029 291, 69.476 291 C 70.222 291, 71.034 291.563, 71.280 292.250 C 72.234 294.921, 72.991 292.106, 72.262 288.597 L 71.492 284.893 69.224 287.006 M 28.507 294.008 C 30.208 295.888, 30.442 295.910, 32.162 294.353 C 34.639 292.112, 34.553 292, 30.345 292 C 26.748 292, 26.719 292.032, 28.507 294.008 M 38 293.500 C 38 294.325, 38.675 295, 39.500 295 C 40.325 295, 41 294.325, 41 293.500 C 41 292.675, 40.325 292, 39.500 292 C 38.675 292, 38 292.675, 38 293.500 M 54 312.500 C 54 313.417, 54.484 314.005, 55.075 313.808 C 55.666 313.611, 56.150 313.022, 56.150 312.500 C 56.150 311.978, 55.666 311.389, 55.075 311.192 C 54.484 310.995, 54 311.583, 54 312.500 M 69 313.583 C 69 315.349, 71.153 315.042, 71.771 313.188 C 71.989 312.534, 71.454 312, 70.583 312 C 69.713 312, 69 312.712, 69 313.583 M 59.101 321.816 C 57.866 324.746, 57.892 325.321, 59.328 326.756 C 61.440 328.869, 61.648 328.407, 61.022 323 L 60.500 318.500 59.101 321.816 M 76.542 322.932 C 75.897 323.976, 79.747 327, 81.723 327 C 82.425 327, 83 325.875, 83 324.500 C 83 322.400, 82.529 322, 80.059 322 C 78.441 322, 76.859 322.419, 76.542 322.932 M 66.796 330 C 66.479 333.025, 66.316 335.609, 66.434 335.741 C 66.552 335.874, 69.766 334.371, 73.575 332.402 L 80.500 328.822 74.938 329.397 C 69.570 329.953, 69.342 329.878, 68.375 327.237 C 67.448 324.705, 67.330 324.913, 66.796 330 M 84.667 326.667 C 83.516 327.817, 83.938 329, 85.500 329 C 86.325 329, 87 328.325, 87 327.500 C 87 325.938, 85.817 325.516, 84.667 326.667 M 51.409 329.376 C 50.562 331.584, 51.689 332.711, 53.217 331.183 C 54.119 330.281, 54.122 329.722, 53.233 328.833 C 52.343 327.943, 51.909 328.072, 51.409 329.376 M 43 333 C 43 337.587, 44.233 338.099, 46.595 334.495 C 47.918 332.476, 47.996 331.700, 46.996 330.495 C 44.671 327.694, 43 328.742, 43 333 M 180 335 C 180 337.889, 180.167 338, 184.500 338 C 188.833 338, 189 337.889, 189 335 C 189 332.111, 188.833 332, 184.500 332 C 180.167 332, 180 332.111, 180 335 M 49 337.500 C 49 340.464, 50.075 340.679, 52.347 338.169 C 54.179 336.145, 53.632 335, 50.833 335 C 49.544 335, 49 335.742, 49 337.500 M 55 336.500 C 55 337.417, 55.484 338.005, 56.075 337.808 C 56.666 337.611, 57.150 337.022, 57.150 336.500 C 57.150 335.978, 56.666 335.389, 56.075 335.192 C 55.484 334.995, 55 335.583, 55 336.500 M 72.441 336.532 C 74.537 338.117, 76.234 338.312, 79.750 337.370 C 83.919 336.253, 82.043 335, 76.250 335.032 C 70.976 335.061, 70.661 335.185, 72.441 336.532 M 35 340.500 C 35 341.325, 35.675 342, 36.500 342 C 37.325 342, 38 341.325, 38 340.500 C 38 339.675, 37.325 339, 36.500 339 C 35.675 339, 35 339.675, 35 340.500 M 154 343.500 C 154 345.796, 154.367 346, 158.500 346 C 162.633 346, 163 345.796, 163 343.500 C 163 341.204, 162.633 341, 158.500 341 C 154.367 341, 154 341.204, 154 343.500 M 174.263 343.505 L 171.500 345.937 176.156 345.968 C 180.272 345.996, 180.754 345.776, 180.308 344.069 C 179.520 341.058, 177.281 340.849, 174.263 343.505 M 140.949 344.079 L 137.500 345.916 144.309 345.958 C 151.237 346.001, 152.298 344.997, 147.201 343.220 C 145.024 342.461, 143.628 342.653, 140.949 344.079 M 41.639 343.694 C 40.513 344.820, 40.954 346, 42.500 346 C 43.325 346, 44 345.577, 44 345.059 C 44 343.798, 42.438 342.895, 41.639 343.694 M 51 344.500 C 51 345.452, 51.958 346, 53.622 346 C 55.840 346, 56.053 345.768, 55 344.500 C 54.315 343.675, 53.135 343, 52.378 343 C 51.620 343, 51 343.675, 51 344.500 M 245 344.500 C 245 345.325, 245.675 346, 246.500 346 C 247.325 346, 248 345.325, 248 344.500 C 248 343.675, 247.325 343, 246.500 343 C 245.675 343, 245 343.675, 245 344.500 M 93.762 345.707 C 95.006 345.946, 96.806 345.937, 97.762 345.687 C 98.718 345.437, 97.700 345.241, 95.500 345.252 C 93.300 345.263, 92.518 345.468, 93.762 345.707 M 192.750 345.706 C 193.988 345.944, 196.012 345.944, 197.250 345.706 C 198.488 345.467, 197.475 345.272, 195 345.272 C 192.525 345.272, 191.512 345.467, 192.750 345.706"
		stroke="none" fill="#040404" fill-rule="evenodd"></path>
</g>
</svg>