<svg id="svgContent" version="1.1" width="103" height="370" style="position: relative; width: 103px; height: 370px; margin:auto; user-select: none; cursor: default;" xmlns="http://www.w3.org/2000/svg" xmlns:xlink="http://www.w3.org/1999/xlink" viewBox="0 0 103 370">
<g id="svgPath">
	<path
		d="M 93.500 1 C 93.840 1.550, 96.116 2, 98.559 2 C 101.002 2, 103 1.550, 103 1 C 103 0.450, 100.723 0, 97.941 0 C 94.823 0, 93.119 0.384, 93.500 1 M 99.667 77.667 C 98.449 78.885, 98.978 81, 100.500 81 C 101.333 81, 102 80.111, 102 79 C 102 77.008, 100.934 76.399, 99.667 77.667 M 92 79.031 C 92 80.320, 94.849 81.484, 95.764 80.569 C 96.137 80.196, 95.780 79.473, 94.971 78.961 C 93.035 77.737, 92 77.761, 92 79.031 M 96.489 86.018 C 95.574 87.498, 96.442 88.255, 98.577 87.838 C 100.140 87.534, 100.156 87.371, 98.745 86.201 C 97.620 85.269, 96.984 85.218, 96.489 86.018 M 91.667 86.667 C 90.516 87.817, 90.938 89, 92.500 89 C 93.325 89, 94 88.325, 94 87.500 C 94 85.938, 92.817 85.516, 91.667 86.667 M 100.442 106.907 C 100.751 107.405, 100.164 107.594, 99.139 107.326 C 96.646 106.674, 95.543 109.633, 97.792 110.943 C 99.394 111.877, 99.392 111.941, 97.757 111.970 C 96.369 111.994, 96.046 112.814, 96.171 116 C 96.338 120.266, 96.810 120.733, 98.947 118.750 C 100.024 117.750, 100.152 117.750, 99.588 118.750 C 98.795 120.153, 99.130 120.271, 101.418 119.393 C 103.282 118.678, 103.514 114.914, 101.800 113.200 C 100.867 112.267, 100.867 111.733, 101.800 110.800 C 103.514 109.086, 103.283 106, 101.441 106 C 100.584 106, 100.134 106.408, 100.442 106.907 M 91.245 123.583 C 90.560 124.316, 90 125.191, 90 125.527 C 90 126.604, 94.329 125.544, 94.714 124.373 C 95.276 122.664, 92.660 122.068, 91.245 123.583 M 99 123 C 99 123.550, 99.450 124, 100 124 C 100.550 124, 101 123.550, 101 123 C 101 122.450, 100.550 122, 100 122 C 99.450 122, 99 122.450, 99 123 M 82 126 C 82 126.550, 82.450 127, 83 127 C 83.550 127, 84 126.550, 84 126 C 84 125.450, 83.550 125, 83 125 C 82.450 125, 82 125.450, 82 126 M 95 125.981 C 95 126.520, 96.095 127.237, 97.433 127.573 C 100.213 128.270, 99.909 130.529, 96.931 131.308 C 95.699 131.630, 95 131.304, 95 130.406 C 95 129.633, 94.415 129, 93.699 129 C 92.831 129, 92.385 130.494, 92.358 133.500 C 92.335 135.975, 92.583 138.002, 92.908 138.004 C 93.234 138.007, 93.581 139.582, 93.679 141.504 C 93.865 145.132, 93.387 145.449, 88.346 145.052 C 87.161 144.958, 85.896 145.358, 85.536 145.941 C 84.787 147.153, 81.376 147.373, 80.747 146.250 C 80.517 145.838, 80.471 146.078, 80.646 146.785 C 80.847 147.596, 80.141 147.971, 78.732 147.803 C 77.504 147.656, 72.724 147.902, 68.109 148.349 C 61.523 148.987, 59.537 148.876, 58.874 147.831 C 58.241 146.832, 58.027 146.812, 58.015 147.750 C 58.007 148.438, 57 149, 55.777 149 L 53.555 149 55.777 150.557 C 57.361 151.666, 58 153.129, 58 155.646 C 58 158.087, 58.695 159.760, 60.250 161.056 L 62.500 162.933 59.309 162.967 C 57.554 162.985, 55.840 162.550, 55.500 162 C 55.160 161.450, 54.009 161, 52.941 161 C 51.873 161, 51 161.450, 51 162 C 51 162.550, 51.637 163, 52.417 163 C 53.196 163, 53.983 163.384, 54.167 163.853 C 54.654 165.099, 65 166.284, 65 165.093 C 65 164.557, 64.550 163.840, 64 163.500 C 62.311 162.456, 62.892 158.128, 64.862 157.074 C 68.443 155.157, 73.113 154.910, 76.241 156.470 C 80.342 158.516, 82.222 158.400, 85.395 155.904 C 87.923 153.916, 88.189 153.894, 90.604 155.476 C 92.618 156.795, 93.766 156.929, 96.103 156.114 C 99.558 154.909, 101.710 155.504, 102.327 157.835 C 102.570 158.751, 102.820 155.787, 102.884 151.250 C 102.948 146.713, 102.598 143, 102.107 143 C 101.616 143, 100.936 142.275, 100.596 141.389 C 100.175 140.292, 100.412 139.944, 101.339 140.300 C 102.307 140.671, 102.712 139.908, 102.740 137.661 C 102.761 135.923, 102.565 135.065, 102.304 135.756 C 102.043 136.447, 101.418 136.758, 100.915 136.447 C 100.412 136.136, 100 136.434, 100 137.108 C 100 138.686, 98.674 137.384, 98.403 135.540 C 98.286 134.744, 98.770 134.358, 99.522 134.647 C 100.256 134.929, 101.351 134.118, 101.978 132.828 C 103.086 130.549, 103.075 130.542, 101.430 132.500 C 99.781 134.463, 99.762 134.454, 100.415 132 C 101.885 126.471, 101.886 126.107, 100.431 126.665 C 99.626 126.974, 98.993 126.621, 98.985 125.857 C 98.973 124.810, 98.748 124.843, 98 126 C 97.354 127, 97.026 127.083, 97.015 126.250 C 97.007 125.563, 96.550 125, 96 125 C 95.450 125, 95 125.441, 95 125.981 M 96 137.786 C 96 139.004, 95.550 140, 95 140 C 94.450 140, 94 140.450, 94 141 C 94 142.403, 95.288 142.244, 97.559 140.561 C 99.408 139.190, 99.417 139.038, 97.750 137.347 C 96.076 135.648, 96 135.667, 96 137.786 M 57.750 139.662 C 58.438 139.940, 59.563 139.940, 60.250 139.662 C 60.938 139.385, 60.375 139.158, 59 139.158 C 57.625 139.158, 57.063 139.385, 57.750 139.662 M 51 143 C 51 143.550, 51.450 144, 52 144 C 52.550 144, 53 143.550, 53 143 C 53 142.450, 52.550 142, 52 142 C 51.450 142, 51 142.450, 51 143 M 56 143 C 56 143.550, 56.450 144, 57 144 C 57.550 144, 58 143.550, 58 143 C 58 142.450, 57.550 142, 57 142 C 56.450 142, 56 142.450, 56 143 M 59 143 C 59 143.550, 59.450 144, 60 144 C 60.550 144, 61 143.550, 61 143 C 61 142.450, 60.550 142, 60 142 C 59.450 142, 59 142.450, 59 143 M 9 171 C 9 171.550, 9.450 172, 10 172 C 10.550 172, 11 171.550, 11 171 C 11 170.450, 10.550 170, 10 170 C 9.450 170, 9 170.450, 9 171 M 42 171 C 42 171.550, 42.450 172, 43 172 C 43.550 172, 44 171.550, 44 171 C 44 170.450, 43.550 170, 43 170 C 42.450 170, 42 170.450, 42 171 M 99 171.500 C 99 172.333, 99.889 173, 101 173 C 102.111 173, 103 172.333, 103 171.500 C 103 170.667, 102.111 170, 101 170 C 99.889 170, 99 170.667, 99 171.500 M 51 172 C 51 172.550, 51.450 173, 52 173 C 52.550 173, 53 172.550, 53 172 C 53 171.450, 52.550 171, 52 171 C 51.450 171, 51 171.450, 51 172 M 59 176 C 59 177.867, 59.267 178.133, 60.200 177.200 C 61.133 176.267, 61.133 175.733, 60.200 174.800 C 59.267 173.867, 59 174.133, 59 176 M 79 175 C 77.910 175.704, 78.730 175.969, 82 175.969 C 85.270 175.969, 86.090 175.704, 85 175 C 84.175 174.467, 82.825 174.031, 82 174.031 C 81.175 174.031, 79.825 174.467, 79 175 M 67 176 C 67 176.550, 67.450 177, 68 177 C 68.550 177, 69 176.550, 69 176 C 69 175.450, 68.550 175, 68 175 C 67.450 175, 67 175.450, 67 176 M 39 178 C 39 179.467, 39.667 180, 41.500 180 C 44.292 180, 44.947 177.577, 42.418 176.607 C 39.775 175.593, 39 175.909, 39 178 M 50 178.794 C 50 179.323, 50.727 180.358, 51.615 181.096 C 53.013 182.256, 53.181 182.182, 52.865 180.551 C 52.489 178.607, 50 177.082, 50 178.794 M 46 180 C 46 180.550, 46.450 181, 47 181 C 47.550 181, 48 180.550, 48 180 C 48 179.450, 47.550 179, 47 179 C 46.450 179, 46 179.450, 46 180 M 54.688 179.646 C 53.383 180.950, 54.006 182, 56.083 182 C 57.247 182, 57.992 181.476, 57.771 180.813 C 57.284 179.351, 55.614 178.719, 54.688 179.646 M 91.003 181.137 C 90.999 183.489, 97.074 184.258, 98.709 182.112 C 100.586 179.647, 100.340 179.445, 95.503 179.474 C 92.018 179.494, 91.006 179.868, 91.003 181.137 M 0.639 180.694 C -0.487 181.820, -0.046 183, 1.500 183 C 2.325 183, 3 182.577, 3 182.059 C 3 180.798, 1.438 179.895, 0.639 180.694 M 23 181.059 C 23 181.641, 23.450 181.840, 24 181.500 C 24.550 181.160, 25 180.684, 25 180.441 C 25 180.198, 24.550 180, 24 180 C 23.450 180, 23 180.477, 23 181.059 M 59 181 C 59 181.550, 59.450 182, 60 182 C 60.550 182, 61 181.550, 61 181 C 61 180.450, 60.550 180, 60 180 C 59.450 180, 59 180.450, 59 181 M 75 181 C 75 181.550, 75.450 182, 76 182 C 76.550 182, 77 181.550, 77 181 C 77 180.450, 76.550 180, 76 180 C 75.450 180, 75 180.450, 75 181 M 78 181.500 C 78 182.325, 78.659 183, 79.465 183 C 80.270 183, 81.411 183.900, 82 185 C 82.589 186.100, 83.456 187, 83.928 187 C 85.493 187, 85.986 183.951, 84.743 181.960 C 83.259 179.584, 78 179.225, 78 181.500 M 101.543 180.931 C 101.226 181.443, 101.425 182.144, 101.984 182.490 C 102.543 182.835, 103 182.416, 103 181.559 C 103 179.802, 102.400 179.544, 101.543 180.931 M 37.161 183.547 C 34.628 189.105, 36.457 193.706, 39.945 190.550 C 41.490 189.152, 41.612 188.310, 40.760 184.952 C 39.591 180.349, 38.765 180.026, 37.161 183.547 M 57 184 C 57 184.550, 57.450 185, 58 185 C 58.550 185, 59 184.550, 59 184 C 59 183.450, 58.550 183, 58 183 C 57.450 183, 57 183.450, 57 184 M 92 186.500 C 92 187.325, 92.787 187.993, 93.750 187.985 C 96.137 187.964, 98.618 186.285, 97.667 185.333 C 97.240 184.907, 96.473 185.220, 95.961 186.029 C 95.331 187.025, 95.026 187.097, 95.015 186.250 C 95.007 185.563, 94.325 185, 93.500 185 C 92.675 185, 92 185.675, 92 186.500 M 101.711 187.999 C 101.423 189.098, 101.596 190.250, 102.094 190.558 C 102.592 190.866, 103 189.966, 103 188.559 C 103 185.495, 102.430 185.247, 101.711 187.999 M 26.667 187.667 C 25.307 189.026, 26.072 190, 28.500 190 C 31.293 190, 31.853 188.541, 29.418 187.607 C 27.460 186.855, 27.478 186.855, 26.667 187.667 M 79.667 187.667 C 78.405 188.928, 79.004 190, 80.969 190 C 82.308 190, 82.753 189.520, 82.362 188.500 C 81.746 186.896, 80.747 186.587, 79.667 187.667 M 99 188 C 99 188.550, 99.450 189, 100 189 C 100.550 189, 101 188.550, 101 188 C 101 187.450, 100.550 187, 100 187 C 99.450 187, 99 187.450, 99 188 M 52 189.500 C 53.578 191.401, 56.071 191.413, 58.559 189.532 C 60.352 188.175, 60.129 188.061, 55.628 188.032 C 51.408 188.004, 50.922 188.201, 52 189.500 M 67 189 C 67 189.550, 67.450 190, 68 190 C 68.550 190, 69 189.550, 69 189 C 69 188.450, 68.550 188, 68 188 C 67.450 188, 67 188.450, 67 189 M 1 190 C 1 190.550, 1.450 191, 2 191 C 2.550 191, 3 190.550, 3 190 C 3 189.450, 2.550 189, 2 189 C 1.450 189, 1 189.450, 1 190 M 45 190.500 C 45 191.433, 45.944 192, 47.500 192 C 49.056 192, 50 191.433, 50 190.500 C 50 189.567, 49.056 189, 47.500 189 C 45.944 189, 45 189.567, 45 190.500 M 32 194.500 C 32 195.433, 32.944 196, 34.500 196 C 36.056 196, 37 195.433, 37 194.500 C 37 193.567, 36.056 193, 34.500 193 C 32.944 193, 32 193.567, 32 194.500 M 87.500 194 C 87.137 194.588, 88.247 195.015, 90.191 195.035 L 93.500 195.071 91 196.500 L 88.500 197.929 91.050 197.965 C 92.453 197.984, 94.140 198.540, 94.800 199.200 C 95.733 200.133, 96 199.715, 96 197.317 C 96 194.964, 95.466 194.090, 93.750 193.630 C 90.427 192.740, 88.197 192.872, 87.500 194 M 100 194 C 100 194.550, 100.675 195, 101.500 195 C 102.325 195, 103 194.550, 103 194 C 103 193.450, 102.325 193, 101.500 193 C 100.675 193, 100 193.450, 100 194 M 85 198.071 C 85 199.665, 87.633 202, 89.429 202 C 91.695 202, 91.364 199.908, 89 199.290 C 87.900 199.002, 87 198.369, 87 197.883 C 87 197.398, 86.550 197, 86 197 C 85.450 197, 85 197.482, 85 198.071 M 98 200.500 C 98 201.875, 98.402 203, 98.893 203 C 100.059 203, 101.167 200.079, 100.444 198.910 C 99.355 197.147, 98 198.029, 98 200.500 M 93 206 C 93 206.550, 93.450 207, 94 207 C 94.550 207, 95 206.550, 95 206 C 95 205.450, 94.550 205, 94 205 C 93.450 205, 93 205.450, 93 206 M 101 206.500 C 101 207.325, 101.450 208, 102 208 C 102.550 208, 103 207.325, 103 206.500 C 103 205.675, 102.550 205, 102 205 C 101.450 205, 101 205.675, 101 206.500 M 92.557 218.250 C 93.490 221.284, 93.843 221.557, 95.152 220.248 C 95.978 219.422, 95.861 218.718, 94.707 217.564 C 92.515 215.372, 91.747 215.617, 92.557 218.250 M 43 219.878 C 43 221.045, 43.423 222, 43.941 222 C 45.673 222, 45.994 220.240, 44.489 218.991 C 43.250 217.962, 43 218.111, 43 219.878 M 23 234.453 C 23 236.461, 25.150 241, 26.101 241 C 27.172 241, 27.649 240.042, 28.462 236.250 C 29.130 233.136, 29.030 233, 26.079 233 C 24.053 233, 23 233.497, 23 234.453 M 83.655 234.829 C 80.343 238.489, 82.462 239.078, 88.277 236.114 C 91.699 234.369, 91.809 234.182, 89.739 233.627 C 86.269 232.697, 85.435 232.862, 83.655 234.829 M 101 234 C 101 234.550, 101.450 235, 102 235 C 102.550 235, 103 234.550, 103 234 C 103 233.450, 102.550 233, 102 233 C 101.450 233, 101 233.450, 101 234 M 16.362 235.500 C 16.712 236.414, 16.363 237, 15.469 237 C 14.569 237, 14 237.968, 14 239.500 C 14 242.511, 16.468 242.863, 17.965 240.066 C 19.533 237.136, 19.237 234, 17.393 234 C 16.375 234, 15.997 234.550, 16.362 235.500 M 90 239 C 90 240.867, 90.267 241.133, 91.200 240.200 C 92.133 239.267, 92.133 238.733, 91.200 237.800 C 90.267 236.867, 90 237.133, 90 239 M 57.500 240 C 57.160 240.550, 57.835 241, 59 241 C 60.165 241, 60.840 240.550, 60.500 240 C 60.160 239.450, 59.485 239, 59 239 C 58.515 239, 57.840 239.450, 57.500 240 M 17.500 243 C 17.160 243.550, 17.359 244, 17.941 244 C 18.523 244, 19 243.550, 19 243 C 19 242.450, 18.802 242, 18.559 242 C 18.316 242, 17.840 242.450, 17.500 243 M 45 243 C 45 243.550, 45.450 244, 46 244 C 46.550 244, 47 243.550, 47 243 C 47 242.450, 46.550 242, 46 242 C 45.450 242, 45 242.450, 45 243 M 84.185 244.750 C 84.403 245.903, 85.623 246.607, 87.758 246.813 C 90.468 247.075, 91 246.788, 91 245.063 C 91 243.364, 90.370 243, 87.427 243 C 84.564 243, 83.919 243.348, 84.185 244.750 M 52.349 245.466 C 52.707 246.400, 53.002 248.364, 53.004 249.832 C 53.007 252.029, 53.758 252.809, 57.264 254.250 C 62.394 256.359, 64 256.448, 64 254.625 C 64 253.869, 64.268 251.908, 64.596 250.268 C 65.171 247.396, 65.014 247.242, 60.346 246.098 C 57.681 245.444, 54.644 244.653, 53.599 244.339 C 52.119 243.896, 51.842 244.145, 52.349 245.466 M 10 247 C 10 247.550, 10.450 248, 11 248 C 11.550 248, 12 247.550, 12 247 C 12 246.450, 11.550 246, 11 246 C 10.450 246, 10 246.450, 10 247 M 13 246.893 C 13 247.384, 13.675 248.045, 14.500 248.362 C 15.414 248.712, 16 248.363, 16 247.469 C 16 246.661, 15.325 246, 14.500 246 C 13.675 246, 13 246.402, 13 246.893 M 46 248.878 C 46 252.467, 46.508 252.788, 47.944 250.105 C 48.697 248.698, 48.577 247.894, 47.479 246.983 C 46.227 245.944, 46 246.235, 46 248.878 M 100 261 C 100 261.550, 100.450 262, 101 262 C 101.550 262, 102 261.550, 102 261 C 102 260.450, 101.550 260, 101 260 C 100.450 260, 100 260.450, 100 261 M 45.674 280.406 C 45.378 281.179, 46.005 282.599, 47.067 283.561 C 48.939 285.255, 49 285.210, 49 282.155 C 49 278.887, 46.718 277.687, 45.674 280.406 M 38.431 281.112 C 37.569 282.507, 40.172 284.228, 41.355 283.045 C 42.316 282.084, 41.390 280, 40 280 C 39.515 280, 38.809 280.500, 38.431 281.112 M 43 286 C 43 286.550, 43.450 287, 44 287 C 44.550 287, 45 286.550, 45 286 C 45 285.450, 44.550 285, 44 285 C 43.450 285, 43 285.450, 43 286 M 82 288 C 82 288.550, 82.450 289, 83 289 C 83.550 289, 84 288.550, 84 288 C 84 287.450, 83.550 287, 83 287 C 82.450 287, 82 287.450, 82 288 M 77 297 C 77 297.550, 77.927 298, 79.059 298 C 80.191 298, 80.840 297.550, 80.500 297 C 80.160 296.450, 79.234 296, 78.441 296 C 77.648 296, 77 296.450, 77 297 M 78.667 303.667 C 78.300 304.033, 78 304.761, 78 305.283 C 78 306.196, 79.753 305.952, 83.053 304.582 C 84.324 304.054, 84.531 304.577, 84.194 307.461 C 83.968 309.398, 83.387 310.739, 82.904 310.440 C 82.148 309.973, 82.773 318.888, 83.563 319.839 C 83.718 320.026, 86.355 319.616, 89.422 318.930 C 94.726 317.743, 94.999 317.530, 94.985 314.591 C 94.976 312.891, 94.544 310.827, 94.024 310.005 C 93.214 308.723, 92.868 308.794, 91.598 310.505 C 89.264 313.650, 86.403 311.324, 86.828 306.628 C 87.155 303.020, 87.135 303, 83.245 303 C 81.094 303, 79.033 303.300, 78.667 303.667 M 96.921 314.148 C 96.325 315.261, 96.035 316.368, 96.276 316.609 C 96.981 317.314, 100 315.875, 100 314.834 C 100 314.310, 100.450 314.160, 101 314.500 C 101.550 314.840, 102 314.512, 102 313.772 C 102 311.632, 98.114 311.919, 96.921 314.148 M 90.500 314 C 90.840 314.550, 91.541 315, 92.059 315 C 92.577 315, 93 314.550, 93 314 C 93 313.450, 92.298 313, 91.441 313 C 90.584 313, 90.160 313.450, 90.500 314 M 100 319.906 C 100 320.405, 99.100 320.577, 98 320.290 C 96.465 319.888, 96 320.259, 96 321.883 C 96 323.048, 96.563 323.955, 97.250 323.900 C 99.322 323.735, 103.592 322.207, 102.281 322.100 C 101.611 322.045, 101.322 321.325, 101.638 320.500 C 101.955 319.675, 101.716 319, 101.107 319 C 100.498 319, 100 319.408, 100 319.906 M 27 329 C 27 330.867, 27.267 331.133, 28.200 330.200 C 29.133 329.267, 29.133 328.733, 28.200 327.800 C 27.267 326.867, 27 327.133, 27 329 M 30 330.500 C 30 331.325, 29.325 332, 28.500 332 C 27.675 332, 27 332.661, 27 333.469 C 27 334.363, 27.586 334.712, 28.500 334.362 C 29.659 333.917, 30 334.590, 30 337.328 C 30 342.567, 31.558 345.760, 35.192 347.970 L 38.433 349.942 40.717 347.797 C 41.972 346.617, 43 344.830, 43 343.826 C 43 342.822, 43.675 342, 44.500 342 C 45.359 342, 46 341.099, 46 339.893 C 46 338.431, 45.541 337.962, 44.500 338.362 C 43.353 338.802, 43 338.158, 43 335.624 C 43 331.049, 40.424 329, 34.671 329 C 31.186 329, 30 329.381, 30 330.500 M 48 335 C 48 335.550, 48.450 336, 49 336 C 49.550 336, 50 335.550, 50 335 C 50 334.450, 49.550 334, 49 334 C 48.450 334, 48 334.450, 48 335 M 98 338 C 98 338.550, 98.450 339, 99 339 C 99.550 339, 100 338.550, 100 338 C 100 337.450, 99.550 337, 99 337 C 98.450 337, 98 337.450, 98 338 M 88 345 C 88 345.550, 88.450 346, 89 346 C 89.550 346, 90 345.550, 90 345 C 90 344.450, 89.550 344, 89 344 C 88.450 344, 88 344.450, 88 345 M 92.030 346.550 C 92.057 349.136, 92.193 349.272, 93.134 347.654 C 93.903 346.330, 93.895 345.495, 93.104 344.704 C 92.299 343.899, 92.008 344.399, 92.030 346.550 M 45 368 C 45 369.289, 45.506 369.998, 46.250 369.750 C 46.938 369.521, 47.500 368.733, 47.500 368 C 47.500 367.267, 46.938 366.479, 46.250 366.250 C 45.506 366.002, 45 366.711, 45 368"
		stroke="none" fill="#040404" fill-rule="evenodd"></path>
</g>
</svg>