<svg id="svgContent" version="1.1" width="72" height="426" style="position: relative; width: 72px; height: 426px; margin:auto; user-select: none; cursor: default;" xmlns="http://www.w3.org/2000/svg" xmlns:xlink="http://www.w3.org/1999/xlink" viewBox="0 0 72 426">
<g id="svgPath">
	<path
			d="M 37 1 C 37 1.550, 37.450 2, 38 2 C 38.550 2, 39 1.550, 39 1 C 39 0.450, 38.550 0, 38 0 C 37.450 0, 37 0.450, 37 1 M 56 2 C 56 2.550, 56.450 3, 57 3 C 57.550 3, 58 2.550, 58 2 C 58 1.450, 57.550 1, 57 1 C 56.450 1, 56 1.450, 56 2 M 67 3.531 C 67 4.339, 66.213 5.012, 65.250 5.027 C 63.961 5.047, 64.508 5.991, 67.330 8.614 C 71.563 12.548, 73.714 12.453, 69.996 8.496 C 68.707 7.123, 68.180 6, 68.826 6 C 70.528 6, 70.268 3.317, 68.500 2.638 C 67.586 2.288, 67 2.637, 67 3.531 M 56.500 7 C 56.840 7.550, 57.316 8, 57.559 8 C 57.802 8, 58 7.550, 58 7 C 58 6.450, 57.523 6, 56.941 6 C 56.359 6, 56.160 6.450, 56.500 7 M 5.583 7.866 C 5.152 8.563, 5.070 9.403, 5.400 9.733 C 6.295 10.628, 7.271 9.312, 6.787 7.862 C 6.449 6.846, 6.213 6.846, 5.583 7.866 M 48 11.500 C 48 12.325, 48.675 13, 49.500 13 C 50.325 13, 51 12.325, 51 11.500 C 51 10.675, 50.325 10, 49.500 10 C 48.675 10, 48 10.675, 48 11.500 M 56.643 21.769 C 56.342 22.255, 56.351 23.627, 56.662 24.817 C 57.122 26.575, 57.722 26.863, 59.864 26.350 C 63.369 25.510, 63.615 25.201, 62.363 23.202 C 61.179 21.314, 57.494 20.391, 56.643 21.769 M 29 24.500 C 29 25.325, 29.675 26, 30.500 26 C 31.325 26, 32 25.325, 32 24.500 C 32 23.675, 31.325 23, 30.500 23 C 29.675 23, 29 23.675, 29 24.500 M 0 25.417 C 0 26.288, 0.712 27, 1.583 27 C 3.349 27, 3.042 24.847, 1.188 24.229 C 0.534 24.011, 0 24.546, 0 25.417 M 5 28 C 5 28.550, 5.675 29, 6.500 29 C 7.325 29, 8 28.550, 8 28 C 8 27.450, 7.325 27, 6.500 27 C 5.675 27, 5 27.450, 5 28 M 32.570 37.887 C 31.726 39.252, 34.771 41.302, 36.600 40.600 C 37.917 40.095, 37.991 39.694, 36.990 38.488 C 35.614 36.830, 33.409 36.530, 32.570 37.887 M 50.223 42.557 C 47.076 44.761, 47.371 47, 50.809 47 C 54.498 47, 57.510 44.771, 56.694 42.645 C 55.899 40.574, 53.108 40.536, 50.223 42.557 M 39 47 C 39 47.550, 39.450 48, 40 48 C 40.550 48, 41 47.550, 41 47 C 41 46.450, 40.550 46, 40 46 C 39.450 46, 39 46.450, 39 47 M 45.171 49.648 C 45.364 50.654, 46.346 51.636, 47.352 51.829 C 48.673 52.084, 49.084 51.673, 48.829 50.352 C 48.636 49.346, 47.654 48.364, 46.648 48.171 C 45.327 47.916, 44.916 48.327, 45.171 49.648 M 37 52 C 37 52.550, 37.900 53, 39 53 C 40.100 53, 41 52.550, 41 52 C 41 51.450, 40.100 51, 39 51 C 37.900 51, 37 51.450, 37 52 M 12.500 66 C 12.840 66.550, 13.541 67, 14.059 67 C 14.577 67, 15 66.550, 15 66 C 15 65.450, 14.298 65, 13.441 65 C 12.584 65, 12.160 65.450, 12.500 66 M 26.688 67.646 C 25.314 69.020, 26.026 71.142, 27.750 70.810 C 28.712 70.624, 29.500 69.841, 29.500 69.070 C 29.500 67.491, 27.736 66.598, 26.688 67.646 M 16.555 70.250 C 16.934 71.487, 17.695 73.063, 18.245 73.750 C 19.552 75.384, 23 75.364, 23 73.723 C 23 71.426, 19.932 68, 17.876 68 C 16.253 68, 15.998 68.434, 16.555 70.250 M 39.446 75.087 C 38.416 76.755, 40.733 78.667, 42.113 77.287 C 43.267 76.133, 42.545 74, 41 74 C 40.515 74, 39.816 74.489, 39.446 75.087 M -0 79.059 C -0 80.191, 0.430 80.852, 0.956 80.527 C 1.482 80.202, 1.659 79.275, 1.349 78.468 C 0.556 76.401, 0 76.644, -0 79.059 M 42 84.845 C 42 85.950, 45.028 88.529, 47.250 89.317 C 49.858 90.242, 49.365 88.432, 46.365 86.073 C 43.585 83.886, 42 83.440, 42 84.845 M 36 86 C 36 86.550, 36.450 87, 37 87 C 37.550 87, 38 86.550, 38 86 C 38 85.450, 37.550 85, 37 85 C 36.450 85, 36 85.450, 36 86 M 30.192 109.713 C 28.324 110.070, 28.109 110.426, 29.064 111.577 C 30.134 112.867, 33 113.598, 33 112.582 C 33 112.352, 33.273 111.452, 33.607 110.582 C 33.941 109.712, 33.828 109.061, 33.357 109.136 C 32.886 109.211, 31.461 109.471, 30.192 109.713 M 20.345 117.543 C 20.019 118.392, 20.014 119.347, 20.333 119.667 C 21.342 120.676, 24 119.128, 24 117.531 C 24 115.535, 21.112 115.545, 20.345 117.543 M 22.034 125.438 C 16.345 127.892, 13.708 130.771, 18.119 129.711 C 28.119 127.309, 31 126.004, 31 123.878 C 31 122.402, 27.769 122.964, 22.034 125.438 M 32 153.559 C 32 154.416, 32.450 154.840, 33 154.500 C 33.550 154.160, 34 153.459, 34 152.941 C 34 152.423, 33.550 152, 33 152 C 32.450 152, 32 152.702, 32 153.559 M 49 177.402 C 49 178.847, 53.876 181, 57.149 181 C 60.290 181, 59.201 179.297, 54.980 177.609 C 50.051 175.636, 49 175.600, 49 177.402 M 45.500 193 C 45.840 193.550, 46.793 194, 47.618 194 C 48.443 194, 48.840 193.550, 48.500 193 C 48.160 192.450, 47.207 192, 46.382 192 C 45.557 192, 45.160 192.450, 45.500 193 M 50 194.393 C 50 194.609, 50.675 195.045, 51.500 195.362 C 52.325 195.678, 53 195.501, 53 194.969 C 53 194.436, 52.325 194, 51.500 194 C 50.675 194, 50 194.177, 50 194.393 M 38.064 197.939 C 36.874 198.692, 36.853 199.117, 37.937 200.424 C 39.467 202.268, 42.573 202.501, 43.594 200.848 C 43.985 200.215, 43.476 199.090, 42.462 198.348 C 40.299 196.767, 39.966 196.736, 38.064 197.939 M 35 204 C 35 204.550, 36.125 205, 37.500 205 C 38.875 205, 40 204.550, 40 204 C 40 203.450, 38.875 203, 37.500 203 C 36.125 203, 35 203.450, 35 204 M 47.750 205.662 C 48.438 205.940, 49.563 205.940, 50.250 205.662 C 50.938 205.385, 50.375 205.158, 49 205.158 C 47.625 205.158, 47.063 205.385, 47.750 205.662 M 2.122 242.904 C -0.170 244.355, 1.878 246, 5.977 246 C 10.806 246, 13 245.186, 13 243.393 C 13 241.800, 4.471 241.416, 2.122 242.904 M 65.557 307.223 C 63.614 309.996, 63.466 316, 65.339 316 C 67.063 316, 69 311.743, 69 307.953 C 69 304.440, 67.699 304.164, 65.557 307.223 M 59.250 309.084 C 56.370 310.174, 56.161 314, 58.981 314 C 60.270 314, 61.185 313.110, 61.601 311.453 C 62.390 308.310, 62.092 308.009, 59.250 309.084 M 1.557 314.223 C -0.072 316.548, -0.592 322, 0.816 322 C 1.770 322, 6 314.749, 6 313.114 C 6 311.196, 3.185 311.898, 1.557 314.223 M 30.683 421.650 C 29.618 422.715, 29.881 426, 31.031 426 C 32.510 426, 33.441 423.041, 32.316 421.916 C 31.794 421.394, 31.059 421.274, 30.683 421.650"
			stroke="none" fill="#040404" fill-rule="evenodd"></path>
</g>
</svg>