<svg viewBox="0 0 98 77" xmlns="http://www.w3.org/2000/svg">
    <g aria-label="Z Y E M I R A C O N C E R T" style="font-size:16px;white-space:pre">
        <path style="-inkscape-font-specification:Impact;stroke-width:1.26258;stroke-dasharray:none" d="M105.572 52.67c-1.246 0-2.805-.54-3.465-1.2l-1.2-1.2v-15.2l1.2-1.2c.66-.66 2.22-1.2 3.465-1.2 1.245 0 2.73.871 3.3 1.935.57 1.064 1.035 4.694 1.035 8.066 0 3.372-.466 7.002-1.035 8.066-.57 1.063-2.055 1.934-3.3 1.934zM84.893 50.045l.014-9.874.038-9.819c2.606-3.186 7.588-2.598 8.962-.281v20.2c-.549 2.736-7.801 3.554-9.014-.226zM74.407 52.67c-1.155 0-2.64-.54-3.3-1.2-.66-.66-1.2-3.494-1.2-6.3 0-2.804.54-5.64 1.2-6.3.66-.66 2.145-1.2 3.3-1.2 1.155 0 2.64.54 3.3 1.2.66.66 1.2 3.496 1.2 6.3 0 2.806-.54 5.64-1.2 6.3-.66.66-2.145 1.2-3.3 1.2zM27.707 104.667l-5.3-.004-3.26-1.987c-1.792-1.093-4.153-3.454-5.246-5.246-1.092-1.793-1.988-4.97-1.99-7.059-.002-2.09.655-5.074 1.46-6.63.805-1.558 2.865-4.01 4.577-5.451l3.112-2.62H32.907V47.942l.476-2.866c.741-1.449 2.433-1.923 3.669-2.404h22.855v2.39c0 1.313-.853 3.441-1.895 4.729l-1.895 2.34-5.855.52-5.855.52-.5 21-.5 21-2.329 3.266c-1.28 1.796-3.621 3.933-5.2 4.75-1.58.817-5.257 1.483-8.171 1.481zm.016-10.075c.723.043 2.186-.387 3.25-.956l1.934-1.035v-6.93h-7.69l-1.735 1.917-1.735 1.917 1.069 1.996c.587 1.097 1.636 2.224 2.33 2.504.693.28 1.853.544 2.577.587z" transform="matrix(.85547 0 0 .84584 -9.68 -18.766)"/>
        <path style="-inkscape-font-specification:Impact;stroke-width:1.26258;stroke-dasharray:none" d="M56.574 58.476v2.531l-2.453 7.586h2.453v2.532H50.51v-1.836l2.532-8.282h-2.235v-2.53zM67.254 58.476l-2.399 8.07v4.579h-3.047v-4.579l-2.312-8.07h3.023c.474 2.464.74 4.123.797 4.977.182-1.35.487-3.008.914-4.977zM70.636 58.476h5.485v2.531h-2.196v2.399h2.055v2.406h-2.055v2.781h2.414v2.532h-5.703ZM90.254 58.476v12.649h-2.875v-8.54l-1.149 8.54h-2.039l-1.21-8.344v8.344h-2.876V58.476h4.258c.125.76.258 1.656.398 2.688l.453 3.218.75-5.906zM97.683 58.476v12.649h-3.289V58.476ZM101.824 58.476h2.328c1.552 0 2.602.06 3.148.18.553.12 1 .427 1.344.922.35.49.524 1.273.524 2.351 0 .985-.123 1.646-.368 1.985-.244.338-.726.541-1.445.609.651.161 1.089.378 1.313.648.224.271.362.521.414.75.057.224.086.847.086 1.868v3.336h-3.055V66.92c0-.677-.055-1.096-.164-1.257-.104-.162-.383-.243-.836-.243v5.704h-3.29zm3.289 2.164v2.813c.37 0 .628-.05.773-.149.151-.104.227-.435.227-.992v-.695c0-.401-.073-.664-.219-.79-.14-.124-.4-.187-.781-.187zM118.941 58.476l1.883 12.649h-3.367l-.164-2.274h-1.18l-.195 2.274h-3.407l1.672-12.649zM117.2 66.61c-.167-1.432-.333-3.2-.5-5.305-.333 2.417-.542 4.185-.625 5.305zM58.754 83.012h-3.29v-2.203c0-.641-.036-1.04-.109-1.196-.068-.161-.221-.242-.46-.242-.272 0-.444.097-.516.29-.073.192-.11.609-.11 1.25v5.874c0 .615.037 1.016.11 1.203.072.188.237.282.492.282.245 0 .403-.094.476-.282.078-.187.117-.627.117-1.32v-1.586h3.29v.492c0 1.308-.094 2.235-.282 2.782-.182.546-.59 1.026-1.226 1.437-.63.411-1.41.617-2.336.617-.964 0-1.758-.174-2.383-.523-.625-.35-1.04-.83-1.242-1.446-.203-.62-.305-1.549-.305-2.789v-3.695c0-.911.031-1.594.094-2.047.062-.458.247-.898.555-1.32.312-.422.742-.753 1.289-.992.552-.245 1.185-.367 1.898-.367.969 0 1.768.187 2.398.562.63.375 1.045.844 1.243 1.406.198.558.297 1.427.297 2.61zM70.27 84.902c0 1.271-.032 2.172-.095 2.704a2.97 2.97 0 0 1-.562 1.445 3.002 3.002 0 0 1-1.274 1.008c-.536.234-1.161.351-1.875.351-.677 0-1.286-.11-1.828-.328a3.031 3.031 0 0 1-1.297-1 2.994 2.994 0 0 1-.585-1.445c-.063-.521-.094-1.433-.094-2.735v-2.164c0-1.27.028-2.169.086-2.695.062-.531.25-1.016.562-1.453a3.058 3.058 0 0 1 1.281-1.008c.537-.234 1.162-.351 1.875-.351.678 0 1.284.112 1.82.335.542.22.977.55 1.305.993.329.442.524.924.586 1.445.063.52.094 1.432.094 2.734zm-3.29-4.156c0-.588-.034-.963-.101-1.125-.063-.167-.196-.25-.399-.25a.456.456 0 0 0-.398.203c-.089.13-.133.521-.133 1.172v5.906c0 .735.029 1.188.086 1.36.062.172.203.258.422.258.224 0 .367-.1.43-.297.062-.198.093-.67.093-1.414zM81.66 77.496v12.649h-2.883l-1.71-5.75v5.75h-2.75V77.496h2.75l1.843 5.695v-5.695zM93.48 83.012h-3.289v-2.203c0-.641-.036-1.04-.11-1.196-.067-.161-.22-.242-.46-.242-.271 0-.443.097-.516.29-.073.192-.11.609-.11 1.25v5.874c0 .615.037 1.016.11 1.203.073.188.237.282.492.282.245 0 .404-.094.477-.282.078-.187.117-.627.117-1.32v-1.586h3.29v.492c0 1.308-.095 2.235-.282 2.782-.182.546-.591 1.026-1.227 1.437-.63.411-1.409.617-2.336.617-.963 0-1.757-.174-2.382-.523-.625-.35-1.04-.83-1.243-1.446-.203-.62-.304-1.549-.304-2.789v-3.695c0-.911.03-1.594.093-2.047.063-.458.248-.898.555-1.32.313-.422.742-.753 1.29-.992.551-.245 1.184-.367 1.898-.367.968 0 1.768.187 2.398.562.63.375 1.044.844 1.242 1.406.198.558.297 1.427.297 2.61zM97.48 77.496h5.484v2.531h-2.195v2.399h2.055v2.406h-2.055v2.781h2.414v2.532H97.48zM106.949 77.496h2.328c1.552 0 2.602.06 3.148.18.553.12 1 .427 1.344.922.35.49.524 1.273.524 2.351 0 .985-.123 1.646-.368 1.985-.244.338-.726.541-1.445.609.651.161 1.089.378 1.313.648.224.271.362.521.414.75.057.224.086.847.086 1.868v3.336h-3.055V85.94c0-.677-.055-1.096-.164-1.257-.104-.162-.383-.243-.836-.243v5.704h-3.29zm3.289 2.164v2.813c.37 0 .628-.05.773-.149.151-.104.227-.435.227-.992v-.695c0-.401-.073-.664-.219-.79-.14-.124-.4-.187-.781-.187zM125.011 77.496v2.531h-1.953v10.118h-3.289V80.027h-1.945v-2.53z" transform="matrix(.85547 0 0 .84584 -9.68 -18.766)"/>
    </g>
</svg>
