<svg
   viewBox="0 0 98 77"
   xmlns="http://www.w3.org/2000/svg">
   <g
      aria-label="Z Y E M I R A C O N C E R T"
      transform="matrix(0.85546502,0,0,0.84584103,-9.6807507,-18.766176)"
      id="text461"
      style="font-size:16px;white-space:pre">
      <path
         style="-inkscape-font-specification:Impact;stroke-width:1.26258;stroke-dasharray:none"
         d="m 74.406869,52.67088 c -1.155002,0 -2.639995,-0.54 -3.299996,-1.2 -0.660001,-0.66 -1.200002,-3.495 -1.200002,-6.3 0,-2.805001 0.540001,-5.640001 1.200002,-6.300001 0.660001,-0.659999 2.144994,-1.2 3.299996,-1.2 1.155002,0 2.640004,0.540001 3.300005,1.2 0.659992,0.66 1.199993,3.495 1.199993,6.300001 0,2.805 -0.540001,5.64 -1.199993,6.3 -0.660001,0.66 -2.145003,1.2 -3.300005,1.2 z"
         id="line-1" />
      <path
         style="-inkscape-font-specification:Impact;stroke-width:1.26258;stroke-dasharray:none"
         d="m 84.893426,50.044642 0.01344,-9.873762 0.03802,-9.81858 c 2.605899,-3.186317 7.588019,-2.598541 8.961984,-0.281421 v 10.100001 10.1 c -0.54857,2.736023 -7.800893,3.554104 -9.013447,-0.226238 z"
         id="line-2" />
      <path
         style="-inkscape-font-specification:Impact;stroke-width:1.26258;stroke-dasharray:none"
         d="m 105.57169,52.67088 c -1.24564,0 -2.80481,-0.54 -3.46481,-1.2 l -1.2,-1.2 v -7.6 -7.600001 l 1.2,-1.2 c 0.66,-0.66 2.21917,-1.2 3.46481,-1.2 1.24566,0 2.73065,0.870416 3.30001,1.934258 0.56935,1.063843 1.03518,4.693426 1.03518,8.065743 0,3.372316 -0.46583,7.001899 -1.03518,8.065741 -0.56936,1.063843 -2.05435,1.934259 -3.30001,1.934259 z"
         id="line-3" />
      <path
         style="-inkscape-font-specification:Impact;stroke-width:1.26258;stroke-dasharray:none"
         d="m 27.706534,104.66715 -5.299661,-0.004 -3.25914,-1.98714 c -1.79253,-1.0929 -4.15335,-3.453726 -5.24627,-5.246257 -1.09291,-1.792513 -1.9888,-4.968982 -1.99086,-7.05879 -0.002,-2.089817 0.6551,-5.073714 1.460351,-6.630888 0.80524,-1.557173 2.86477,-4.009826 4.576719,-5.45034 l 3.112651,-2.619116 h 5.923265 5.923281 V 61.805738 47.940595 l 0.475719,-2.865577 c 0.741555,-1.44876 2.433622,-1.923203 3.669443,-2.404141 h 11.427413 11.427414 v 2.389217 c 0,1.314069 -0.852791,3.442373 -1.895096,4.729565 l -1.895104,2.34035 -5.854896,0.520434 -5.854905,0.520435 -0.499985,21.000001 -0.500004,20.999997 -2.328834,3.265094 c -1.280865,1.7958 -3.62102,3.9333 -5.200346,4.74999 -1.579325,0.8167 -5.256344,1.48323 -8.171155,1.48117 z m 0.01611,-10.075213 c 0.723653,0.04345 2.186146,-0.386889 3.250002,-0.956243 l 1.93426,-1.035182 v -3.464811 -3.46482 H 29.061879 25.21687 l -1.734686,1.916812 -1.734691,1.916811 1.068237,1.996033 c 0.587543,1.09782 1.635907,2.224733 2.329711,2.504251 0.693805,0.279508 1.853541,0.543728 2.577203,0.587149 z"
         id="note" />
      <path
         style="-inkscape-font-specification:Impact;stroke-width:1.26258;stroke-dasharray:none"
         d="m 56.57387,58.476136 v 2.53125 l -2.453125,7.585937 h 2.453125 v 2.53125 h -6.0625 v -1.835937 l 2.53125,-8.28125 h -2.234375 v -2.53125 z"
         id="z" />
      <path
         style="-inkscape-font-specification:Impact;stroke-width:1.26258;stroke-dasharray:none"
         d="m 67.253558,58.476136 -2.398438,8.070312 v 4.578125 h -3.046875 v -4.578125 l -2.3125,-8.070312 h 3.023438 c 0.473958,2.463541 0.739583,4.122395 0.796875,4.976562 0.182291,-1.348958 0.486979,-3.007812 0.914062,-4.976562 z"
         id="y" />
      <path
         style="-inkscape-font-specification:Impact;stroke-width:1.26258;stroke-dasharray:none"
         d="m 70.63637,58.476136 h 5.484375 v 2.53125 h -2.195312 v 2.398437 h 2.054687 v 2.40625 h -2.054687 v 2.78125 h 2.414062 v 2.53125 H 70.63637 Z"
         id="e" />
      <path
         style="-inkscape-font-specification:Impact;stroke-width:1.26258;stroke-dasharray:none"
         d="m 90.253558,58.476136 v 12.648437 h -2.875 v -8.539062 l -1.148438,8.539062 h -2.039062 l -1.210938,-8.34375 v 8.34375 h -2.875 V 58.476136 h 4.257813 c 0.125,0.760417 0.257812,1.65625 0.398437,2.6875 l 0.453125,3.21875 0.75,-5.90625 z"
         id="m" />
      <path
         style="-inkscape-font-specification:Impact;stroke-width:1.26258;stroke-dasharray:none"
         d="M 97.683245,58.476136 V 71.124573 H 94.394183 V 58.476136 Z"
         id="i" />
      <path
         style="-inkscape-font-specification:Impact;stroke-width:1.26258;stroke-dasharray:none"
         d="m 101.82387,58.476136 h 2.32813 c 1.55208,0 2.60156,0.0599 3.14844,0.179687 0.55208,0.119792 1,0.427084 1.34375,0.921875 0.34895,0.489583 0.52343,1.273438 0.52343,2.351563 0,0.984375 -0.12239,1.645833 -0.36718,1.984375 -0.24479,0.338541 -0.72657,0.541666 -1.44532,0.609375 0.65105,0.161458 1.08855,0.377604 1.3125,0.648437 0.22396,0.270833 0.36198,0.520833 0.41407,0.75 0.0573,0.223959 0.0859,0.846355 0.0859,1.867188 v 3.335937 h -3.05468 v -4.203125 c 0,-0.677083 -0.0547,-1.096354 -0.16407,-1.257812 -0.10417,-0.161459 -0.38281,-0.242188 -0.83593,-0.242188 v 5.703125 h -3.28907 z m 3.28907,2.164062 v 2.8125 c 0.36979,0 0.6276,-0.04948 0.77343,-0.148437 0.15105,-0.104167 0.22657,-0.434896 0.22657,-0.992188 v -0.695312 c 0,-0.401042 -0.0729,-0.664063 -0.21875,-0.789063 -0.14063,-0.125 -0.40104,-0.1875 -0.78125,-0.1875 z"
         id="r" />
      <path
         style="-inkscape-font-specification:Impact;stroke-width:1.26258;stroke-dasharray:none"
         d="m 118.94106,58.476136 1.88281,12.648437 h -3.36718 l -0.16407,-2.273437 h -1.17968 l -0.19532,2.273437 h -3.40625 l 1.67188,-12.648437 z m -1.74219,8.132812 c -0.16667,-1.432291 -0.33333,-3.20052 -0.5,-5.304687 -0.33333,2.416667 -0.54167,4.184896 -0.625,5.304687 z"
         id="a" />
      <path
         style="-inkscape-font-specification:Impact;stroke-width:1.26258;stroke-dasharray:none"
         d="m 58.753558,83.01179 h -3.289063 v -2.203125 c 0,-0.640625 -0.03646,-1.039062 -0.109375,-1.195312 -0.06771,-0.161459 -0.221354,-0.242188 -0.460937,-0.242188 -0.270833,0 -0.442708,0.09635 -0.515625,0.289063 -0.07292,0.192708 -0.109375,0.609375 -0.109375,1.25 v 5.875 c 0,0.614583 0.03646,1.015625 0.109375,1.203125 0.07292,0.1875 0.236979,0.28125 0.492187,0.28125 0.244792,0 0.403646,-0.09375 0.476563,-0.28125 0.07813,-0.1875 0.117187,-0.627604 0.117187,-1.320313 v -1.585937 h 3.289063 v 0.492187 c 0,1.307292 -0.09375,2.234375 -0.28125,2.78125 -0.182292,0.546875 -0.591146,1.026042 -1.226563,1.4375 -0.630208,0.411459 -1.408854,0.617188 -2.335937,0.617188 -0.963542,0 -1.757813,-0.174479 -2.382813,-0.523438 -0.625,-0.348958 -1.039062,-0.830729 -1.242187,-1.445312 -0.203125,-0.619792 -0.304688,-1.54948 -0.304688,-2.789063 v -3.695312 c 0,-0.911459 0.03125,-1.59375 0.09375,-2.046875 0.0625,-0.458333 0.247396,-0.898438 0.554688,-1.320313 0.3125,-0.421875 0.742187,-0.752604 1.289062,-0.992187 0.552083,-0.244792 1.184896,-0.367188 1.898438,-0.367188 0.96875,0 1.768229,0.1875 2.398437,0.5625 0.630209,0.375 1.044271,0.84375 1.242188,1.40625 0.197917,0.557292 0.296875,1.427084 0.296875,2.609375 z"
         id="c" />
      <path
         style="-inkscape-font-specification:Impact;stroke-width:1.26258;stroke-dasharray:none"
         d="m 70.269183,84.902415 c 0,1.270833 -0.03125,2.171875 -0.09375,2.703125 -0.05729,0.526042 -0.244793,1.007813 -0.5625,1.445313 -0.3125,0.4375 -0.736979,0.773437 -1.273438,1.007812 -0.536458,0.234375 -1.161458,0.351563 -1.875,0.351563 -0.677083,0 -1.286458,-0.109375 -1.828125,-0.328125 -0.536458,-0.223959 -0.96875,-0.557292 -1.296875,-1 -0.328125,-0.442709 -0.523437,-0.92448 -0.585937,-1.445313 -0.0625,-0.520833 -0.09375,-1.432292 -0.09375,-2.734375 v -2.164062 c 0,-1.270833 0.02865,-2.169271 0.08594,-2.695313 0.0625,-0.53125 0.25,-1.015625 0.5625,-1.453125 0.317709,-0.4375 0.744792,-0.773437 1.28125,-1.007812 0.536459,-0.234375 1.161459,-0.351563 1.875,-0.351563 0.677083,0 1.283854,0.111979 1.820313,0.335938 0.541667,0.21875 0.976562,0.549479 1.304687,0.992187 0.328125,0.442709 0.523438,0.92448 0.585938,1.445313 0.0625,0.520833 0.09375,1.432292 0.09375,2.734375 z m -3.289063,-4.15625 c 0,-0.588541 -0.03385,-0.963541 -0.101562,-1.125 -0.0625,-0.166667 -0.195313,-0.25 -0.398438,-0.25 -0.171875,0 -0.304687,0.06771 -0.398437,0.203125 -0.08854,0.130209 -0.132813,0.520834 -0.132813,1.171875 v 5.90625 c 0,0.734375 0.02865,1.1875 0.08594,1.359375 0.0625,0.171875 0.203125,0.257813 0.421875,0.257813 0.223958,0 0.367187,-0.09896 0.429687,-0.296875 0.0625,-0.197917 0.09375,-0.669271 0.09375,-1.414063 z"
         id="o" />
      <path
         style="-inkscape-font-specification:Impact;stroke-width:1.26258;stroke-dasharray:none"
         d="m 81.659808,77.496165 v 12.648438 h -2.882813 l -1.710937,-5.75 v 5.75 h -2.75 V 77.496165 h 2.75 l 1.84375,5.695313 v -5.695313 z"
         id="n" />
      <path
         style="-inkscape-font-specification:Impact;stroke-width:1.26258;stroke-dasharray:none"
         d="m 93.48012,83.01179 h -3.289062 v -2.203125 c 0,-0.640625 -0.03646,-1.039062 -0.109375,-1.195312 -0.06771,-0.161459 -0.221355,-0.242188 -0.460938,-0.242188 -0.270833,0 -0.442708,0.09635 -0.515625,0.289063 -0.07292,0.192708 -0.109375,0.609375 -0.109375,1.25 v 5.875 c 0,0.614583 0.03646,1.015625 0.109375,1.203125 0.07292,0.1875 0.236979,0.28125 0.492188,0.28125 0.244791,0 0.403645,-0.09375 0.476562,-0.28125 0.07813,-0.1875 0.117188,-0.627604 0.117188,-1.320313 v -1.585937 h 3.289062 v 0.492187 c 0,1.307292 -0.09375,2.234375 -0.28125,2.78125 -0.182291,0.546875 -0.591145,1.026042 -1.226562,1.4375 -0.630209,0.411459 -1.408855,0.617188 -2.335938,0.617188 -0.963541,0 -1.757812,-0.174479 -2.382812,-0.523438 -0.625,-0.348958 -1.039063,-0.830729 -1.242188,-1.445312 -0.203125,-0.619792 -0.304687,-1.54948 -0.304687,-2.789063 v -3.695312 c 0,-0.911459 0.03125,-1.59375 0.09375,-2.046875 0.0625,-0.458333 0.247396,-0.898438 0.554687,-1.320313 0.3125,-0.421875 0.742188,-0.752604 1.289063,-0.992187 0.552083,-0.244792 1.184896,-0.367188 1.898437,-0.367188 0.96875,0 1.768229,0.1875 2.398438,0.5625 0.630208,0.375 1.04427,0.84375 1.242187,1.40625 0.197917,0.557292 0.296875,1.427084 0.296875,2.609375 z"
         id="c" />
      <path
         style="-inkscape-font-specification:Impact;stroke-width:1.26258;stroke-dasharray:none"
         d="m 97.48012,77.496165 h 5.48438 v 2.53125 h -2.19531 v 2.398438 h 2.05468 v 2.40625 h -2.05468 v 2.78125 h 2.41406 v 2.53125 h -5.70313 z"
         id="e" />
      <path
         style="-inkscape-font-specification:Impact;stroke-width:1.26258;stroke-dasharray:none"
         d="m 106.94887,77.496165 h 2.32813 c 1.55208,0 2.60156,0.0599 3.14844,0.179688 0.55208,0.119791 1,0.427083 1.34375,0.921875 0.34895,0.489583 0.52343,1.273437 0.52343,2.351562 0,0.984375 -0.12239,1.645834 -0.36718,1.984375 -0.24479,0.338542 -0.72657,0.541667 -1.44532,0.609375 0.65105,0.161459 1.08855,0.377605 1.3125,0.648438 0.22396,0.270833 0.36198,0.520833 0.41407,0.75 0.0573,0.223958 0.0859,0.846354 0.0859,1.867187 v 3.335938 h -3.05468 v -4.203125 c 0,-0.677083 -0.0547,-1.096354 -0.16407,-1.257813 -0.10417,-0.161458 -0.38281,-0.242187 -0.83593,-0.242187 v 5.703125 h -3.28907 z m 3.28907,2.164063 v 2.8125 c 0.36979,0 0.6276,-0.04948 0.77343,-0.148438 0.15105,-0.104167 0.22657,-0.434896 0.22657,-0.992187 V 80.63679 c 0,-0.401041 -0.0729,-0.664062 -0.21875,-0.789062 -0.14063,-0.125 -0.40104,-0.1875 -0.78125,-0.1875 z"
         id="r" />
      <path
         style="-inkscape-font-specification:Impact;stroke-width:1.26258;stroke-dasharray:none"
         d="m 125.01137,77.496165 v 2.53125 h -1.95312 v 10.117188 h -3.28906 V 80.027415 h -1.94532 v -2.53125 z"
         id="t" />
   </g>
</svg>