<svg id="svgContent" version="1.1" width="61" height="58" style="position: relative; width: 61px; height: 58px; margin:auto; user-select: none; cursor: default;" xmlns="http://www.w3.org/2000/svg" xmlns:xlink="http://www.w3.org/1999/xlink" viewBox="0 0 61 58">
<g id="svgPath">
	<path
		d="M 29.179 2.087 C 28.686 3.414, 26.982 8.211, 25.392 12.747 L 22.500 20.995 15.500 21.072 C 11.650 21.114, 6.490 21.452, 4.034 21.824 L -0.433 22.500 8.284 29.304 C 13.078 33.047, 16.995 36.647, 16.989 37.304 C 16.983 37.962, 15.638 42.775, 14 48 C 12.362 53.225, 11.017 57.612, 11.011 57.750 C 10.964 58.807, 14 57.153, 21.721 51.918 L 30.691 45.837 39.383 51.918 C 46.786 57.097, 50.040 58.886, 49.989 57.750 C 49.983 57.612, 48.638 53.225, 47 48 C 45.362 42.775, 44.017 37.972, 44.011 37.327 C 44.005 36.682, 48.050 32.959, 53 29.054 C 57.950 25.150, 62.001 21.852, 62.001 21.727 C 62.002 21.602, 60.315 21.484, 58.251 21.465 C 56.188 21.446, 50.900 21.333, 46.500 21.213 L 38.500 20.996 35.111 11.248 C 31.192 -0.027, 30.411 -1.232, 29.179 2.087"
		stroke="none" fill="#e4e4e4" fill-rule="evenodd"></path>
</g>
</svg>