<svg id="svgContent" version="1.1" xmlns="http://www.w3.org/2000/svg" xmlns:xlink="http://www.w3.org/1999/xlink" viewBox="0 0 321 328">
	<g id="svgPath">
		<path d="M 155.882 1.844 C 154.572 2.755, 151.332 5.607, 148.683 8.183 C 146.033 10.759, 143.435 13.233, 142.909 13.683 C 142.383 14.132, 140.501 16.461, 138.726 18.857 C 136.952 21.254, 134.064 25.079, 132.309 27.357 C 130.554 29.636, 127.404 34.108, 125.309 37.295 C 123.214 40.482, 119.972 44.757, 118.104 46.795 C 113.499 51.819, 90.056 87.683, 75.500 111.971 C 73.300 115.642, 68.536 123.563, 64.914 129.573 C 51.146 152.414, 28.532 196.455, 18.738 219.500 C 15.699 226.650, 10.725 237.225, 7.685 243 C 1.264 255.196, -0.592 261.025, 0.998 263.996 C 1.588 265.098, 3.067 265.998, 4.285 265.996 C 10.426 265.986, 16.659 258.359, 30.162 234.332 C 34.128 227.274, 42.075 213.175, 47.821 203 C 53.567 192.825, 60.397 180.675, 62.998 176 C 86.988 132.880, 140 50.155, 140 55.839 C 140 56.464, 138.591 61.369, 136.869 66.738 C 130.919 85.291, 126.078 104.221, 116.144 147.775 C 102.421 207.942, 100.382 218.072, 95.475 250.500 C 91.380 277.556, 93.330 291.817, 101.146 291.968 C 103.112 292.006, 109 285.579, 109 283.395 C 109 282.551, 111.860 277.729, 115.356 272.680 C 118.852 267.631, 127.456 253.375, 134.476 241 C 146.717 219.423, 159.913 199.007, 171.965 183 C 175.070 178.875, 180.600 170.908, 184.253 165.296 C 187.905 159.684, 192.332 153.609, 194.089 151.796 C 195.846 149.983, 199.766 145.125, 202.799 141 C 205.833 136.875, 209.309 132.600, 210.523 131.500 C 211.737 130.400, 215.990 125.563, 219.973 120.750 C 223.956 115.938, 227.398 112, 227.621 112 C 227.844 112, 227.283 113.688, 226.374 115.750 C 224.175 120.740, 217.300 138.219, 215.032 144.588 C 214.035 147.387, 212.794 150.537, 212.274 151.588 C 199.693 177.033, 182.522 222.413, 173.144 255 C 162.036 293.601, 160.698 301.583, 163.420 313 C 164.273 316.575, 164.977 321.157, 164.985 323.183 C 164.997 326.031, 165.473 327.015, 167.087 327.528 C 170.802 328.707, 175.908 327.051, 178.890 323.701 C 206.348 292.852, 230.679 264.870, 233.059 261.401 C 233.852 260.247, 239.220 254.281, 244.990 248.143 C 250.759 242.005, 255.709 236.424, 255.990 235.742 C 256.270 235.059, 262.180 229.100, 269.121 222.500 C 276.063 215.900, 281.800 209.968, 281.871 209.317 C 281.942 208.667, 282.788 207.870, 283.750 207.546 C 286.958 206.466, 313 180.250, 313 178.100 C 313 177.495, 314.099 177, 315.443 177 C 319.099 177, 321 173.491, 321 166.746 C 321 160.459, 319.429 158.572, 316.330 161.138 C 315.425 161.887, 313.294 162.500, 311.593 162.500 C 308.863 162.500, 308.521 162.814, 308.677 165.171 C 308.901 168.536, 307.355 169.131, 301.954 167.760 C 297.876 166.725, 297.566 166.807, 295.447 169.464 C 294.198 171.031, 292.726 171.949, 292.093 171.557 C 290.686 170.688, 284 174.708, 284 176.423 C 284 177.116, 282.163 178.234, 279.918 178.906 C 277.019 179.775, 275.998 180.552, 276.395 181.587 C 276.704 182.392, 276.011 183.820, 274.849 184.773 C 270.233 188.560, 258.984 200.474, 258.458 202.133 C 258.150 203.104, 257.303 203.670, 256.575 203.391 C 255.352 202.921, 252.719 205.414, 238.500 220.495 C 235.750 223.412, 232.733 226.188, 231.795 226.664 C 229.839 227.656, 219.997 239.392, 207.280 255.893 C 202.451 262.159, 198.374 266.649, 198.220 265.870 C 197.962 264.564, 209.707 229.568, 216.910 210.182 C 218.609 205.607, 220 201.203, 220 200.397 C 220 199.590, 220.775 197.747, 221.722 196.301 C 224.083 192.699, 227.079 184.427, 227.990 179 C 228.929 173.401, 231.336 166.440, 235.078 158.500 C 235.596 157.400, 236.183 155.024, 236.382 153.220 C 236.582 151.416, 237.498 149.107, 238.419 148.089 C 240.964 145.278, 244 138.857, 244 136.289 C 244 135.030, 244.392 134, 244.872 134 C 245.352 134, 246.021 132.268, 246.360 130.150 C 246.699 128.033, 247.881 125.150, 248.988 123.743 C 250.094 122.336, 251 120.687, 251 120.079 C 251 118.956, 251.427 117.972, 254.357 112.346 C 255.261 110.611, 256 108.268, 256 107.140 C 256 106.011, 257.315 102.858, 258.922 100.133 C 260.529 97.407, 261.594 94.927, 261.289 94.622 C 260.984 94.317, 261.886 91.634, 263.295 88.659 C 264.703 85.684, 266.382 81.282, 267.025 78.875 C 267.669 76.469, 268.652 73.943, 269.210 73.263 C 269.767 72.582, 269.968 71.359, 269.656 70.545 C 269.343 69.730, 269.518 68.798, 270.044 68.473 C 270.570 68.148, 271 66.965, 271 65.845 C 271 64.725, 271.827 62.614, 272.837 61.154 C 273.848 59.694, 274.990 57.825, 275.376 57 C 275.763 56.175, 276.729 54.375, 277.524 53 C 279.842 48.994, 279.387 46.100, 276.250 44.887 C 271.549 43.070, 264.927 44.434, 254.526 49.361 C 245.371 53.698, 243.821 54.880, 234.313 64.779 C 228.649 70.675, 223.756 76.287, 223.440 77.250 C 223.124 78.213, 222.299 79, 221.607 79 C 220.157 79, 216 83.154, 216 84.603 C 216 85.138, 213.979 87.266, 211.508 89.331 C 209.037 91.396, 205.196 95.767, 202.971 99.043 C 200.746 102.319, 198.512 105, 198.008 105 C 197.503 105, 194.257 108.632, 190.795 113.071 C 187.333 117.511, 183.019 123.023, 181.209 125.321 C 179.399 127.620, 175.619 132.875, 172.809 137 C 169.999 141.125, 165.745 146.819, 163.356 149.652 C 158.493 155.421, 137.386 187.509, 132.870 196 C 128.542 204.138, 125.526 209.411, 123.746 211.953 C 122.216 214.137, 122.179 214.064, 122.676 209.857 C 122.960 207.461, 123.621 203.925, 124.147 202 C 124.673 200.075, 125.514 196.025, 126.017 193 C 126.520 189.975, 127.849 183.462, 128.971 178.527 C 130.092 173.592, 131.673 165.717, 132.483 161.027 C 133.293 156.337, 135.811 145.525, 138.079 137 C 140.346 128.475, 143.254 117.450, 144.540 112.500 C 145.825 107.550, 149.829 92.475, 153.437 79 C 159.413 56.679, 163.789 37.160, 166.999 18.500 C 169.323 4.990, 169.326 4.605, 167.102 2.592 C 164.376 0.125, 158.880 -0.242, 155.882 1.844" stroke="none" fill="#acacac" fill-rule="evenodd">
		</path>
	</g>
</svg>