<svg id="svgContent" version="1.1" width="461" height="42" style="position: relative; width: 461px; height: 42px; margin:auto; user-select: none; cursor: default;" xmlns="http://www.w3.org/2000/svg" xmlns:xlink="http://www.w3.org/1999/xlink" viewBox="0 0 461 42">
<g id="svgPath">
	<path
		d="M 254 0.649 C 248.225 0.811, 231.575 1.454, 217 2.078 C 188.835 3.284, 142.156 3.952, 60 4.324 C 12.001 4.542, 9.302 4.651, 5.500 6.527 C 0.675 8.907, 0.035 9.693, 0.015 13.260 C -0.005 16.947, 2.809 19.187, 9.751 21.008 C 12.913 21.838, 15.421 22.963, 15.324 23.508 C 15.226 24.054, 13.260 24.974, 10.955 25.553 C 8.649 26.133, 5.691 27.561, 4.381 28.728 C 1.419 31.366, 1.211 35.615, 4 36.500 C 5.100 36.849, 6 37.764, 6 38.532 C 6 39.920, 9.350 42.316, 10.159 41.508 C 10.677 40.990, 21.245 40.860, 38.500 41.158 C 56.833 41.475, 83.312 40.912, 84.500 40.179 C 85.050 39.840, 88.650 39.497, 92.500 39.417 C 99.907 39.264, 102.850 38.489, 104.530 36.253 C 105.322 35.198, 106.195 35.124, 108.315 35.930 C 110.500 36.760, 111.187 36.677, 111.628 35.526 C 112.102 34.291, 112.574 34.330, 114.798 35.788 C 117.700 37.689, 122.324 37.763, 148.351 36.322 C 156.520 35.870, 163.720 35.845, 164.351 36.267 C 164.983 36.688, 176.075 37.003, 189 36.965 C 201.925 36.928, 228.025 36.919, 247 36.946 C 265.975 36.973, 282.600 36.780, 283.944 36.517 C 285.845 36.146, 308.271 35.864, 317 36.101 C 333.703 36.555, 406.205 35.637, 416.500 34.842 C 424.200 34.246, 433.650 33.653, 437.500 33.524 C 446.509 33.220, 447.044 33.147, 446.778 32.250 C 446.655 31.837, 447.369 30.282, 448.364 28.794 C 449.359 27.306, 449.926 25.689, 449.624 25.201 C 449.323 24.713, 438.840 24, 426.330 23.615 C 404.710 22.951, 401.969 22.698, 403.190 21.476 C 403.939 20.728, 448.503 20.837, 451.523 21.595 C 455.238 22.528, 460 20.246, 460 17.534 C 460 14.278, 457.161 12.266, 451.500 11.510 C 448.750 11.143, 442.450 9.577, 437.500 8.030 C 427.280 4.836, 414.626 3.700, 370.500 2.017 C 343.302 0.980, 272.054 0.143, 254 0.649 M 311.793 20.128 C 311.235 20.473, 315.215 20.819, 320.639 20.897 C 365.893 21.544, 390.946 22.142, 393.375 22.633 C 395.084 22.978, 396.011 22.827, 395.661 22.261 C 395.337 21.737, 388.868 20.970, 381.286 20.556 C 363.848 19.606, 313.143 19.293, 311.793 20.128 M 182 21.146 C 172.925 21.502, 152.257 22.055, 136.070 22.376 C 119.884 22.697, 106.220 23.380, 105.706 23.894 C 105.127 24.473, 110.802 24.685, 120.636 24.452 C 129.361 24.244, 153.600 23.833, 174.500 23.538 C 195.400 23.243, 226.900 22.796, 244.500 22.544 C 272.776 22.139, 300.021 21.169, 300.755 20.541 C 301.356 20.027, 197.005 20.559, 182 21.146 M 76 24.598 L 73.500 26.125 76 25.576 C 77.375 25.274, 79.625 25.014, 81 24.998 C 82.983 24.975, 83.190 24.769, 82 24 C 79.981 22.695, 78.946 22.798, 76 24.598 M 95 24 C 93.667 24.862, 93.667 24.960, 95 24.885 C 95.825 24.839, 97.625 24.440, 99 24 L 101.500 23.199 99 23.115 C 97.625 23.069, 95.825 23.467, 95 24 M 91.500 27 C 91.160 27.550, 91.835 28, 93 28 C 94.165 28, 94.840 27.550, 94.500 27 C 94.160 26.450, 93.485 26, 93 26 C 92.515 26, 91.840 26.450, 91.500 27"
		stroke="none" fill="#acacac" fill-rule="evenodd"></path>
	<path
		d="M 309.750 0.662 C 310.438 0.940, 311.563 0.940, 312.250 0.662 C 312.938 0.385, 312.375 0.158, 311 0.158 C 309.625 0.158, 309.063 0.385, 309.750 0.662 M 164.750 3.662 C 165.438 3.940, 166.563 3.940, 167.250 3.662 C 167.938 3.385, 167.375 3.158, 166 3.158 C 164.625 3.158, 164.063 3.385, 164.750 3.662 M 64.250 4.689 C 65.213 4.941, 66.787 4.941, 67.750 4.689 C 68.713 4.438, 67.925 4.232, 66 4.232 C 64.075 4.232, 63.288 4.438, 64.250 4.689 M 460.079 17.583 C 460.127 18.748, 460.364 18.985, 460.683 18.188 C 460.972 17.466, 460.936 16.603, 460.604 16.271 C 460.272 15.939, 460.036 16.529, 460.079 17.583 M 341.813 21.683 C 342.534 21.972, 343.397 21.936, 343.729 21.604 C 344.061 21.272, 343.471 21.036, 342.417 21.079 C 341.252 21.127, 341.015 21.364, 341.813 21.683 M 1.079 34.583 C 1.127 35.748, 1.364 35.985, 1.683 35.188 C 1.972 34.466, 1.936 33.603, 1.604 33.271 C 1.272 32.939, 1.036 33.529, 1.079 34.583 M 239.813 37.683 C 240.534 37.972, 241.397 37.936, 241.729 37.604 C 242.061 37.272, 241.471 37.036, 240.417 37.079 C 239.252 37.127, 239.015 37.364, 239.813 37.683 M 34.813 41.683 C 35.534 41.972, 36.397 41.936, 36.729 41.604 C 37.061 41.272, 36.471 41.036, 35.417 41.079 C 34.252 41.127, 34.015 41.364, 34.813 41.683"
		stroke="none" fill="#b0acac" fill-rule="evenodd"></path>
</g>
</svg>