<svg id="stroke2" version="1.1" width="433" height="255" fill="#e4e4e4" xmlns="http://www.w3.org/2000/svg" xmlns:xlink="http://www.w3.org/1999/xlink" viewBox="0 0 433 255">
	<g>
		<path d="M 180.913 1.282 C 177.548 3.866, 176.612 7.512, 176.187 19.701 C 175.775 31.535, 177.205 51.348, 179.060 59.500 C 179.560 61.700, 180.678 68.225, 181.543 74 C 183.891 89.669, 194.519 131.102, 197.912 137.808 C 198.382 138.739, 200.232 143.325, 202.022 148 C 205.909 158.151, 220.781 185.352, 225.595 191.114 C 230.832 197.382, 230.821 198.729, 225.478 206.373 C 220.470 213.537, 217.897 215.365, 211.274 216.466 C 207.599 217.076, 205.845 216.614, 197.823 212.919 C 185.593 207.285, 173.151 198.047, 158.654 183.837 L 146.756 172.174 146.918 161.337 C 147.211 141.706, 143.253 112.364, 137.431 91 C 136.006 85.775, 133.731 77.450, 132.375 72.500 C 131.018 67.550, 127.528 58.550, 124.619 52.500 C 111.813 25.869, 102.451 17.075, 86 16.221 C 79.414 15.879, 78.080 16.117, 75.050 18.172 C 71.922 20.294, 71.461 21.246, 70.119 28.364 C 66.409 48.036, 75.005 82.683, 94.589 127 C 100.273 139.861, 111.868 160.584, 119.731 171.933 C 122.183 175.471, 124.540 179.296, 124.970 180.433 C 125.874 182.826, 123.813 204.138, 121.965 211.500 C 118.703 224.497, 112.403 234.165, 104.563 238.203 C 92.784 244.271, 70.462 231.605, 50.451 207.500 C 43.988 199.715, 30.509 181.317, 27.512 176.190 C 26.968 175.261, 25.033 172.139, 23.211 169.254 C 15.009 156.265, 6.799 137.145, 4.961 126.753 C 4.499 124.142, 3.757 121.442, 3.311 120.753 C 2.865 120.064, 1.995 117.025, 1.378 114 C 0.411 109.258, 0.239 111.658, 0.128 131.414 C -0.017 157.294, -0.594 154.609, 9.292 174 C 25 204.811, 49.507 234.075, 69.887 246.358 C 80.921 253.008, 84.881 254.252, 96.669 254.772 C 105.972 255.183, 107.312 255.004, 112.404 252.672 C 120.286 249.064, 124.590 245.494, 129.144 238.788 C 134.964 230.217, 138.584 221.953, 141.115 211.452 L 143.361 202.134 147.431 205.639 C 176.097 230.325, 193.082 239, 212.750 239 C 227.078 239, 236.975 229.099, 238.648 213.093 C 238.998 209.742, 239.411 207, 239.566 207 C 239.720 207, 241.157 208.238, 242.760 209.750 C 255.161 221.456, 273.681 234.880, 282.530 238.577 C 287.494 240.651, 298.773 242.707, 306.358 242.920 C 312.462 243.091, 313.787 242.767, 318.395 239.974 C 321.244 238.248, 324.560 235.397, 325.765 233.638 C 330.665 226.488, 333.991 210.572, 333.997 194.250 C 333.999 190.262, 334.399 187, 334.887 187 C 335.375 187, 339.538 188.994, 344.137 191.432 C 348.737 193.869, 354.768 196.750, 357.541 197.834 C 366.286 201.255, 386.035 205.162, 398.884 206.014 C 409.777 206.737, 412.245 206.591, 419.384 204.798 C 430.515 202.002, 433 200.612, 433 197.183 C 433 195.231, 431.749 193.223, 428.750 190.364 C 421.440 183.393, 418.768 182, 412.702 182 C 397.810 182, 376.110 178.389, 364 173.896 C 355.310 170.672, 341.058 162.828, 336.933 159 C 333.296 155.624, 333.087 155.058, 331.018 143 C 328.506 128.366, 324.762 113.008, 321.994 105.985 C 320.916 103.250, 318.882 96.914, 317.474 91.907 C 312.643 74.725, 305.391 57.901, 297.979 46.677 C 294.145 40.872, 290.582 35.860, 290.061 35.538 C 289.540 35.216, 287.271 31.613, 285.018 27.532 C 278.606 15.917, 272.318 12.169, 264.630 15.381 C 257.250 18.465, 255.554 25.509, 256.988 47.125 C 258.564 70.890, 264.930 92.916, 277.434 117.868 C 288.152 139.258, 296.949 152.040, 310.399 165.770 L 318.500 174.040 318.841 192.770 C 319.282 217.030, 318.055 225.178, 313.275 229.740 L 309.880 232.979 306.190 231.092 C 304.160 230.054, 300.475 227.429, 298 225.258 C 295.525 223.087, 289.450 218.631, 284.500 215.355 C 279.550 212.079, 273.475 207.840, 271 205.937 C 265.593 201.778, 248.592 184.885, 246.647 181.738 C 245.529 179.930, 245.423 176.712, 246.096 165 C 247.065 148.116, 245.674 127.436, 241.890 102.500 C 238.057 77.242, 235.304 67.154, 226.742 47 C 217.277 24.723, 214.272 19.137, 208.490 13.075 C 199.158 3.291, 185.760 -2.439, 180.913 1.282 M 191 22.338 C 191 27.449, 195.172 50.714, 199.458 69.500 C 207.873 106.384, 211.242 116.901, 221.850 139.386 C 229.035 154.617, 231 157.888, 231 154.620 C 231 149.456, 228.769 132.909, 227.545 129 C 226.771 126.525, 225.378 120.225, 224.451 115 C 219.186 85.322, 212.497 65.221, 198.417 36.766 C 194.337 28.522, 191 22.030, 191 22.338 M 267.449 28.468 C 265.760 32.511, 265.585 35.626, 267 36.500 C 267.550 36.840, 268 39.312, 268 41.994 C 268 44.676, 268.508 48.137, 269.128 49.685 C 269.748 51.233, 270.620 54.075, 271.065 56 C 274.645 71.488, 286.802 98.535, 296.909 113.500 C 307.472 129.140, 307.476 129.120, 298.608 102.324 C 294.025 88.477, 289.539 75.305, 288.638 73.053 C 287.737 70.802, 287 67.475, 287 65.661 C 287 63.847, 286.318 59.919, 285.485 56.932 C 284.651 53.944, 283.248 48.800, 282.365 45.500 C 279.044 33.076, 277.657 29.608, 275.115 27.368 C 271.364 24.062, 269.157 24.379, 267.449 28.468 M 80.001 35.750 C 80.003 40.816, 84.292 58.193, 88.030 68.280 C 94.064 84.561, 121.098 136.357, 121.771 132.925 C 121.940 132.059, 120.682 124.184, 118.975 115.425 C 112.029 79.789, 106.898 64.533, 96.969 50 C 92.596 43.600, 82.251 32, 80.916 32 C 80.412 32, 80.001 33.688, 80.001 35.750" stroke="none" fill-rule="evenodd">
		</path>
	</g>
</svg>