<?xml version="1.0" standalone="no"?>
<svg version="1.1" width="388" height="255"
	xmlns="http://www.w3.org/2000/svg"
	xmlns:xlink="http://www.w3.org/1999/xlink" viewBox="0 0 388 255">
	<g>
		<path 
			d="M 232 0.305 C 231.725 0.595, 229.025 1.069, 226 1.358 C 208.869 2.997, 193.432 5.884, 179.500 10.055 C 175.650 11.208, 170.925 12.590, 169 13.127 C 163.985 14.527, 161.740 15.344, 150.161 19.983 C 140.055 24.032, 137.532 25.180, 125.735 31.105 C 122.565 32.697, 119.357 34, 118.608 34 C 117.858 34, 116.745 34.602, 116.134 35.338 C 115.524 36.074, 113.106 37.249, 110.762 37.949 C 108.418 38.648, 106.275 39.509, 106 39.861 C 105.725 40.212, 102.930 41.724, 99.790 43.220 C 91.423 47.205, 70.182 61.205, 64.850 66.250 C 63.832 67.213, 62.712 68, 62.361 68 C 61.226 68, 42.114 84.951, 34.174 93 C 9.084 118.432, -3.238 150.363, 0.949 179.095 C 3.504 196.624, 16.691 214.776, 35.206 226.249 C 50.660 235.826, 79.471 247.169, 94 249.397 C 95.925 249.692, 99.750 250.359, 102.500 250.879 C 120.516 254.289, 167.245 255.334, 191.500 252.870 C 212.196 250.768, 215.931 250.204, 224.819 247.839 C 229.044 246.715, 236.138 245.179, 240.584 244.425 C 245.030 243.671, 249.980 242.370, 251.584 241.533 C 253.188 240.697, 255.310 240.010, 256.300 240.006 C 258.769 239.998, 264.010 237.207, 266.871 234.377 C 269.094 232.177, 271.750 231.978, 270.433 234.109 C 269.703 235.289, 274.046 234.301, 279 232.159 C 280.925 231.327, 282.980 230.553, 283.566 230.439 C 284.587 230.240, 295.960 224.664, 312 216.500 C 316.125 214.400, 323.014 210.278, 327.309 207.341 C 331.605 204.403, 335.464 202, 335.885 202 C 336.307 202, 337.708 200.875, 339 199.500 C 340.292 198.125, 341.714 197, 342.161 197 C 343.093 197, 351.153 189.641, 361.245 179.575 C 372.681 168.169, 381.601 153.869, 385.365 140.908 C 391.572 119.536, 386.486 99.316, 371.039 83.956 C 362.405 75.369, 356.644 71.507, 346.144 67.266 C 322.013 57.519, 294.281 54.775, 267 59.436 C 262.325 60.235, 256.746 61.147, 254.602 61.462 C 245.241 62.840, 229.342 68.082, 218 73.530 C 214.975 74.983, 210.025 77.344, 207 78.777 C 196.584 83.711, 183.496 91.269, 181.500 93.503 C 173.144 102.854, 171.320 106.109, 171.413 111.500 L 171.500 116.500 176 116.774 C 179.768 117.004, 180.988 116.591, 183.500 114.233 C 185.150 112.685, 188.075 110.792, 190 110.027 C 194.557 108.217, 203.382 103.387, 208.778 99.749 C 213.455 96.596, 224 91.663, 224 92.628 C 224 92.959, 225.081 92.521, 226.403 91.655 C 227.725 90.789, 232.058 88.945, 236.031 87.557 C 240.005 86.168, 243.857 84.533, 244.592 83.924 C 245.327 83.314, 248.757 82.425, 252.214 81.948 C 255.671 81.471, 259.850 80.845, 261.500 80.557 C 272.918 78.561, 278.648 78.200, 295.500 78.412 C 306.365 78.549, 315.356 79.102, 316.500 79.704 C 317.600 80.282, 322.479 81.505, 327.342 82.421 C 348.318 86.372, 364.067 101.166, 367.798 120.423 C 369.839 130.961, 356.176 160.987, 345.799 168.769 C 344.864 169.471, 343.433 170.710, 342.621 171.522 C 341.808 172.335, 340.691 173, 340.139 173 C 339.587 173, 338.849 173.900, 338.500 175.001 C 338.150 176.102, 336.883 177.524, 335.682 178.163 C 333.698 179.218, 331.055 181.397, 325.870 186.250 C 324.841 187.213, 323.466 188, 322.814 188 C 321.489 188, 302.372 200.589, 301.462 202.061 C 301.143 202.578, 300.229 203, 299.431 203 C 298.633 203, 295.847 204.473, 293.240 206.273 C 288.154 209.785, 283.188 212.382, 281.386 212.474 C 280.773 212.505, 279.648 213.042, 278.886 213.667 C 278.123 214.293, 275.475 215.321, 273 215.953 C 270.525 216.585, 266.700 217.802, 264.500 218.657 C 262.300 219.513, 258.025 220.859, 255 221.649 C 251.975 222.439, 247.700 223.918, 245.500 224.936 C 240.897 227.065, 235.951 228.460, 234.500 228.037 C 232.460 227.443, 226.159 228.644, 224.531 229.938 C 223.964 230.388, 221.795 230.572, 219.711 230.346 C 216.074 229.952, 206.611 230.797, 189.500 233.042 C 182.353 233.980, 167.120 235.251, 164.500 235.128 C 125.343 233.290, 112.406 232.221, 100.500 229.838 C 90.576 227.851, 72.419 222.524, 70.500 221.036 C 69.950 220.610, 67.700 219.690, 65.500 218.992 C 60.089 217.276, 47.632 210.526, 41.442 205.955 C 35.773 201.770, 27.590 193.042, 25.445 188.894 C 24.668 187.392, 23.064 183.574, 21.880 180.410 C 17.929 169.848, 20.795 149.804, 28.240 135.936 C 31.543 129.782, 33.407 126.587, 34.034 126 C 34.328 125.725, 36.782 122.350, 39.488 118.500 C 42.194 114.650, 45.887 109.925, 47.695 108 C 49.503 106.075, 50.987 103.928, 50.991 103.229 C 50.996 102.529, 52.125 101.445, 53.500 100.818 C 54.875 100.192, 56 99.364, 56 98.980 C 56 98.595, 57.462 96.916, 59.250 95.247 C 62.365 92.340, 64.044 90.804, 72.648 83 C 74.771 81.075, 78.530 78.414, 81.004 77.086 C 83.477 75.758, 87.251 73.308, 89.391 71.640 C 93.225 68.653, 95.354 67.353, 103.750 62.870 C 106.088 61.622, 108 60.241, 108 59.801 C 108 59.360, 108.845 59, 109.878 59 C 110.910 59, 112.315 58.325, 113 57.500 C 113.685 56.675, 114.810 56, 115.500 56 C 116.190 56, 117.315 55.325, 118 54.500 C 118.685 53.675, 120.292 53, 121.573 53 C 122.853 53, 124.260 52.436, 124.700 51.746 C 125.140 51.056, 128.200 49.608, 131.500 48.528 C 134.800 47.448, 139.501 45.312, 141.946 43.782 C 144.391 42.252, 147.103 41, 147.973 41 C 148.843 41, 150.555 40.299, 151.777 39.443 C 153 38.587, 154 38.103, 154 38.368 C 154 39, 163.578 35.593, 167.846 33.443 C 170.819 31.946, 174.284 30.896, 189.500 26.882 C 191.700 26.302, 194.625 25.622, 196 25.373 C 197.375 25.123, 201.200 24.293, 204.500 23.528 C 221.068 19.690, 253.424 15.872, 268.924 15.926 C 280.839 15.968, 284.049 16.306, 289 18.037 C 290.375 18.517, 292.986 19.120, 294.802 19.376 C 296.619 19.632, 300.358 20.419, 303.111 21.125 C 306.735 22.054, 308.592 22.111, 309.838 21.333 C 311.303 20.418, 311.554 20.648, 311.529 22.879 C 311.506 24.932, 312.319 25.900, 315.279 27.346 C 320.172 29.736, 322 28.990, 322 24.604 C 322 22.106, 321.306 20.599, 319.500 19.179 C 318.125 18.097, 316.988 16.827, 316.973 16.356 C 316.958 15.885, 315.271 14.485, 313.223 13.244 C 304.406 7.901, 293.781 3.981, 284 2.463 C 281.525 2.079, 278.600 1.552, 277.500 1.292 C 274.557 0.598, 232.586 -0.312, 232 0.305"
			stroke="#a4a4a4" fill="none" fill-rule="evenodd"></path>
	</g>
</svg>