<svg id="svgContent" version="1.1" width="1440" height="445" style="position: relative; width: 1440px; height: 445px; margin:auto; user-select: none; cursor: default;" preserveAspectRatio='none' xmlns="http://www.w3.org/2000/svg" xmlns:xlink="http://www.w3.org/1999/xlink" viewBox="0 0 1440 445">
<g id="svgPath">
	<path
		d="M 624.671 0.663 C 623.989 1.344, 613.987 1.818, 589.500 2.328 C 581.774 2.489, 574.594 3.114, 573.478 3.723 C 569.225 6.043, 560.715 6.908, 557.078 5.388 C 553.230 3.780, 548.596 4.769, 543.970 8.183 C 540.655 10.630, 521.119 15.271, 513.590 15.399 C 507.878 15.497, 507.643 15.607, 506.590 18.678 C 505.990 20.426, 505.248 22.104, 504.939 22.406 C 504.631 22.708, 497.743 23.466, 489.633 24.091 C 473.515 25.332, 464.790 24.593, 454.288 21.096 C 451.104 20.036, 443.160 17.959, 436.634 16.481 C 426.707 14.232, 423.521 13.908, 417.134 14.494 C 405.647 15.549, 398.072 15.339, 392.293 13.804 C 387.930 12.646, 385.578 12.633, 377.793 13.722 C 372.682 14.437, 365.700 15.376, 362.278 15.810 C 357.901 16.364, 355.325 17.286, 353.586 18.919 C 351.404 20.969, 350.356 21.192, 344.614 20.826 C 340.856 20.587, 337.351 19.778, 336.307 18.909 C 334.289 17.230, 327.012 14.303, 316.500 10.942 C 307.510 8.068, 296.865 7.901, 282.760 10.412 C 273.493 12.062, 271.297 12.151, 266.760 11.064 C 261.433 9.788, 256.115 9.943, 239.500 11.862 C 230.304 12.923, 225.544 14.304, 218.539 17.943 C 216.360 19.074, 213.725 20, 212.683 20 C 211.641 20, 209.499 21.085, 207.922 22.412 C 205.696 24.285, 203.362 24.983, 197.476 25.534 C 193.307 25.925, 188.232 25.945, 186.198 25.578 C 173.407 23.271, 167.799 22.820, 153.331 22.933 C 139.781 23.038, 135.732 22.705, 128.331 20.875 C 123.474 19.674, 118.275 17.839, 116.779 16.798 C 113.209 14.314, 104.329 12.610, 95 12.618 C 89.391 12.623, 85.846 13.261, 80.940 15.149 C 77.332 16.538, 72.832 17.974, 70.940 18.341 C 67.908 18.928, 65.082 20.044, 58.764 23.147 C 57.809 23.616, 56.530 24, 55.921 24 C 55.313 24, 53.671 24.900, 52.273 26 C 50.874 27.100, 48.450 28, 46.885 28 C 45.321 28, 42.344 28.621, 40.270 29.380 C 31.024 32.765, 28.360 33.263, 26.066 32.035 C 24.278 31.079, 23.034 31.169, 19.713 32.498 C 17.441 33.407, 14.988 34.999, 14.262 36.037 C 12.847 38.057, 7.238 39.985, 2.750 39.994 L 0 40 0.001 239.750 L 0.001 439.500 2.751 439.742 C 8.103 440.214, 13.921 438.864, 17.687 436.277 C 19.883 434.767, 22.666 433.736, 24.250 433.844 C 26.106 433.971, 27 433.546, 27 432.539 C 27 431.718, 28.037 430.367, 29.304 429.537 C 32.190 427.646, 36.744 428.765, 41.111 432.440 C 43.660 434.585, 44.828 434.908, 48.326 434.435 C 53.968 433.672, 65.303 430.855, 66.332 429.960 C 66.790 429.562, 68.498 429.739, 70.127 430.354 C 72.420 431.219, 73.268 431.184, 73.877 430.199 C 74.955 428.455, 85.080 428.285, 92.470 429.888 C 96.087 430.672, 98.564 430.808, 98.756 430.233 C 100.465 425.105, 108.721 422.638, 117.789 424.546 C 121.628 425.354, 129.600 423.452, 132.500 421.035 C 133.898 419.870, 136.005 419.445, 139.500 419.622 C 148.824 420.096, 155.490 420.861, 158.577 421.813 C 160.742 422.480, 162.798 422.368, 165.513 421.434 C 168.588 420.377, 170.301 420.349, 173.937 421.294 C 176.446 421.947, 178.950 422.993, 179.500 423.619 C 181.215 425.571, 187.982 426.034, 191.754 424.458 C 193.673 423.656, 196.470 423, 197.968 423 C 199.467 423, 202.213 422.242, 204.071 421.315 C 206.349 420.178, 210.063 419.608, 215.474 419.565 C 222.793 419.506, 223.936 419.214, 228.446 416.250 C 231.166 414.463, 234.627 413, 236.137 413 C 237.647 413, 239.160 412.550, 239.500 412 C 240.373 410.588, 244.193 410.759, 246.527 412.314 C 247.612 413.037, 250.045 413.725, 251.934 413.844 C 253.822 413.963, 255.925 414.523, 256.607 415.089 C 257.462 415.799, 259.191 415.746, 262.174 414.918 C 266.980 413.585, 282.222 413.264, 285.798 414.422 C 287.062 414.831, 288.637 414.731, 289.298 414.201 C 289.959 413.671, 292.075 412.994, 294 412.698 C 295.925 412.402, 299.075 411.755, 301 411.262 C 303.280 410.678, 305.131 410.737, 306.311 411.433 C 307.685 412.243, 308.413 412.138, 309.328 411 C 309.991 410.175, 311.742 408.825, 313.220 408 C 314.697 407.175, 318.439 405.013, 321.535 403.195 C 327.564 399.655, 329.562 399.916, 330.190 404.323 C 330.462 406.235, 331.113 406.496, 335.538 406.469 C 339.132 406.446, 341.488 405.789, 343.754 404.175 C 346.695 402.081, 347.143 402.023, 349.786 403.390 C 351.357 404.202, 354.054 406.105, 355.780 407.620 C 358.199 409.742, 360.133 410.444, 364.209 410.680 C 367.119 410.848, 370.758 411.502, 372.295 412.133 C 374.390 412.993, 375.717 412.994, 377.592 412.140 C 381.111 410.537, 384.580 410.723, 386.474 412.617 C 387.821 413.964, 388.793 414.058, 392.296 413.179 C 394.608 412.598, 397.400 411.906, 398.500 411.641 C 399.600 411.376, 403.729 409.806, 407.675 408.152 C 414.360 405.351, 415.417 405.190, 423.175 405.791 C 438.652 406.990, 443.003 406.648, 444.940 404.079 C 446.147 402.479, 448.040 401.637, 451.245 401.276 C 455.535 400.792, 455.922 400.948, 457.363 403.736 C 459.395 407.665, 466.084 410.442, 477.255 411.993 C 482.071 412.661, 486.233 413.568, 486.505 414.008 C 487.345 415.368, 507.831 416.385, 509.330 415.141 C 510.902 413.837, 514.885 414.920, 522.629 418.757 C 526.315 420.584, 528.624 421.125, 530.840 420.682 C 532.905 420.269, 534.407 420.550, 535.390 421.533 C 537.172 423.315, 540.980 423.422, 544.562 421.790 C 546.848 420.748, 547.408 420.838, 548.571 422.428 C 550.712 425.356, 559.231 425.639, 563.619 422.926 C 567.500 420.528, 572.026 420.809, 575.157 423.642 C 576.371 424.741, 577.905 425.069, 579.934 424.663 C 581.578 424.334, 583.208 424.527, 583.556 425.091 C 583.911 425.665, 585.468 425.836, 587.088 425.481 C 589.201 425.016, 590.702 425.407, 592.628 426.922 C 594.081 428.065, 596.014 429, 596.923 429 C 597.832 429, 600.134 430.332, 602.038 431.959 C 603.942 433.587, 606.261 434.937, 607.191 434.959 C 608.121 434.982, 609.171 435.468, 609.525 436.041 C 609.879 436.613, 610.918 436.848, 611.834 436.564 C 612.750 436.279, 614.151 436.454, 614.946 436.953 C 615.817 437.499, 617.086 437.489, 618.135 436.928 C 619.244 436.334, 620.104 436.359, 620.498 436.997 C 620.839 437.549, 622.791 438, 624.837 438 C 626.882 438, 629.601 438.733, 630.880 439.629 C 632.759 440.944, 634.611 441.130, 640.522 440.594 C 645.196 440.171, 648.070 440.305, 648.479 440.966 C 649.295 442.287, 653.687 442.315, 654.498 441.004 C 654.879 440.387, 656.329 440.672, 658.307 441.754 C 662.726 444.170, 685.861 445.190, 688.403 443.081 C 689.432 442.226, 690.423 442.236, 692.358 443.117 C 694.355 444.027, 695.273 444.018, 696.406 443.078 C 697.536 442.140, 698.375 442.130, 700.063 443.034 C 701.268 443.679, 702.535 443.813, 702.877 443.333 C 704.577 440.949, 709.175 440.077, 715.740 440.892 C 719.458 441.354, 726.550 441.401, 731.500 440.996 C 742.874 440.066, 751.602 440.707, 755.683 442.772 C 758.150 444.020, 759.399 444.139, 761.241 443.300 C 762.981 442.507, 767.306 442.601, 777.418 443.652 C 789.822 444.941, 791.462 444.927, 793.610 443.520 C 794.925 442.659, 796 441.344, 796 440.599 C 796 439.854, 796.683 438.678, 797.519 437.984 C 798.753 436.960, 799.362 437.010, 800.769 438.247 C 803.033 440.239, 808.811 439.962, 812.144 437.702 C 813.599 436.716, 816.524 435.665, 818.644 435.367 C 820.765 435.070, 824.244 434.171, 826.376 433.371 C 830.666 431.760, 838.071 432.361, 841.501 434.599 C 846.308 437.734, 857.461 435.436, 863.599 430.047 C 866.428 427.563, 867.472 427.147, 868.577 428.064 C 869.442 428.782, 871.026 428.935, 872.737 428.467 C 876.640 427.400, 882.113 427.907, 884.715 429.578 C 888.012 431.695, 890.610 431.312, 892.927 428.365 C 894.760 426.036, 895.782 425.705, 901.750 425.512 C 905.462 425.391, 908.950 425.134, 909.500 424.941 C 910.050 424.748, 912.205 425.173, 914.289 425.885 C 916.559 426.661, 918.563 426.827, 919.289 426.298 C 919.955 425.812, 922.300 425.495, 924.500 425.593 C 926.842 425.697, 929.199 425.155, 930.187 424.287 C 931.522 423.114, 932.567 423.023, 935.187 423.851 C 937.873 424.700, 944.052 424.683, 952.500 423.802 C 953.050 423.745, 954.920 424.017, 956.655 424.408 C 958.583 424.841, 960.068 424.699, 960.474 424.042 C 960.839 423.451, 961.561 423.229, 962.079 423.549 C 962.596 423.868, 964.692 422.751, 966.737 421.065 C 969.994 418.380, 971.219 418, 976.606 418 C 979.988 418, 984.371 418.675, 986.346 419.500 C 991.170 421.516, 997.390 421.440, 999.128 419.345 C 1000.894 417.216, 1005.819 415.172, 1012.021 413.996 C 1015.731 413.293, 1017.949 413.424, 1021.092 414.532 C 1026.867 416.570, 1029.113 416.378, 1032.120 413.590 C 1034.825 411.081, 1038.374 410.210, 1041.078 411.392 C 1043.086 412.270, 1047.842 410.484, 1050.750 407.759 C 1051.987 406.600, 1053 406.180, 1053 406.826 C 1053 407.472, 1053.443 408, 1053.985 408 C 1055.632 408, 1065.293 401.875, 1068.767 398.628 C 1071.849 395.747, 1072.217 395.648, 1075.267 396.873 C 1082.958 399.962, 1084.280 399.731, 1092 393.949 C 1099.768 388.130, 1103 384.891, 1103 382.924 C 1103 381.988, 1103.854 380.167, 1104.898 378.878 L 1106.795 376.535 1110.569 379.220 C 1114.689 382.152, 1115.658 382.029, 1117.037 378.403 C 1117.539 377.081, 1118.524 375.997, 1119.225 375.994 C 1119.926 375.990, 1121.806 375.307, 1123.402 374.475 C 1126.583 372.816, 1129.502 373.261, 1130.376 375.538 C 1131.421 378.261, 1134.474 377.004, 1143.936 369.954 C 1151.884 364.032, 1153.811 363.019, 1156.152 363.533 C 1159.169 364.196, 1160.233 363.579, 1165.901 357.883 C 1167.880 355.893, 1170.625 353.918, 1172 353.495 C 1173.375 353.071, 1175.583 351.879, 1176.907 350.845 C 1178.241 349.803, 1180.108 349.217, 1181.095 349.530 C 1182.916 350.108, 1183.440 349.925, 1190.698 346.171 C 1195.650 343.610, 1197 343.466, 1197 345.500 C 1197 346.433, 1197.944 347, 1199.500 347 C 1200.875 347, 1202 346.485, 1202 345.856 C 1202 343.856, 1208.416 338.022, 1210.628 338.011 C 1211.798 338.005, 1213.315 337.325, 1214 336.500 C 1214.685 335.675, 1216.613 335, 1218.285 335 C 1221.401 335, 1228.332 331.477, 1233.288 327.374 C 1235.314 325.696, 1236.846 325.219, 1238.896 325.629 C 1241.175 326.085, 1241.821 325.791, 1242.264 324.097 C 1242.955 321.456, 1245.453 321.427, 1250.500 324 C 1252.658 325.100, 1255.565 325.997, 1256.961 325.993 C 1259.804 325.986, 1264.415 323.267, 1266.456 320.394 C 1267.196 319.352, 1269.398 317.654, 1271.348 316.621 L 1274.895 314.741 1278.101 317.947 C 1279.986 319.832, 1282.005 320.970, 1283.002 320.710 C 1283.934 320.466, 1286.453 321.329, 1288.599 322.628 C 1291.368 324.305, 1294.009 324.991, 1297.703 324.995 C 1300.565 324.998, 1304.064 325.528, 1305.479 326.173 C 1307.574 327.127, 1308.717 327.029, 1311.621 325.644 C 1314.545 324.249, 1316.789 324.063, 1324.055 324.612 C 1331.651 325.185, 1333.317 325.022, 1335.675 323.477 C 1337.746 322.120, 1340.541 321.650, 1346.964 321.579 C 1352.624 321.516, 1356.245 320.993, 1357.710 320.027 C 1359.591 318.786, 1360.468 318.768, 1363.614 319.905 C 1367.016 321.135, 1367.436 321.079, 1368.905 319.195 C 1370.392 317.286, 1371.504 317.155, 1385.391 317.255 C 1398.894 317.353, 1400.326 317.532, 1400.758 319.181 C 1401.346 321.431, 1401.846 321.449, 1404.212 319.308 C 1405.958 317.728, 1406.266 317.726, 1408.897 319.280 C 1413.186 321.814, 1430.240 321.706, 1433.349 319.126 C 1434.348 318.296, 1435.030 318.240, 1435.470 318.951 C 1435.826 319.528, 1436.988 320, 1438.051 320 C 1439.937 320, 1439.991 321.447, 1440.250 379.750 C 1440.396 412.613, 1440.564 349.275, 1440.622 239 C 1440.680 128.725, 1440.539 39.461, 1440.309 40.635 C 1439.999 42.218, 1438.676 43.083, 1435.195 43.977 C 1432.613 44.640, 1426.985 46.267, 1422.688 47.591 C 1413.760 50.344, 1401.892 50.825, 1396.718 48.643 C 1394.948 47.897, 1391.104 45.385, 1388.175 43.061 C 1381.727 37.944, 1377.328 36, 1372.195 36 C 1366.910 36, 1350.502 38.619, 1345 40.340 C 1342.525 41.115, 1335.100 42.506, 1328.500 43.431 C 1321.900 44.357, 1314.475 45.740, 1312 46.505 C 1303.799 49.038, 1298.654 49.298, 1292.384 47.495 C 1285.141 45.413, 1276 41.322, 1276 40.163 C 1276 37.270, 1263.458 35.383, 1231.752 33.506 C 1227.939 33.280, 1224.741 32.382, 1222.252 30.837 C 1218.776 28.679, 1216.938 28.444, 1197.276 27.636 C 1176.219 26.771, 1175.979 26.785, 1166.776 29.349 C 1153.280 33.109, 1139.237 34.359, 1124.579 33.105 C 1117.936 32.536, 1108.225 32.080, 1103 32.091 C 1090.657 32.116, 1081.364 31.328, 1066 28.953 C 1059.125 27.890, 1046.425 26.597, 1037.778 26.079 C 1024.463 25.281, 1021.171 24.751, 1016.278 22.615 C 1011.571 20.561, 1007.910 19.920, 996.525 19.157 C 988.839 18.642, 981.588 18.586, 980.410 19.034 C 977.626 20.093, 972.109 18.808, 963.252 15.039 C 959.324 13.368, 955.496 12, 954.745 12 C 953.995 12, 947.991 10.224, 941.404 8.053 L 929.428 4.105 877.464 4.121 C 842.747 4.132, 822.845 3.746, 817.500 2.961 C 807.317 1.463, 807.015 1.464, 791.500 3.047 C 784.350 3.777, 776.025 4.434, 773 4.508 C 769.975 4.583, 765.475 5.264, 763 6.022 C 757.950 7.569, 742.649 7.630, 713.500 6.220 C 699.885 5.561, 695.003 5.644, 693.462 6.559 C 692.065 7.388, 689.844 7.519, 686.397 6.974 C 683.633 6.537, 677.125 5.896, 671.935 5.550 C 655.136 4.428, 641.599 2.805, 637.215 1.387 C 632.720 -0.068, 625.801 -0.467, 624.671 0.663 M 0.490 240 C 0.490 350.275, 0.607 395.387, 0.750 340.250 C 0.893 285.112, 0.893 194.887, 0.750 139.750 C 0.607 84.612, 0.490 129.725, 0.490 240"
		stroke="none" fill="#040404" fill-rule="evenodd"></path>
</g>
</svg>