<svg xmlns="http://www.w3.org/2000/svg" viewBox="0 0 196 626"	fill="#000000" xmlns:xlink="http://www.w3.org/1999/xlink">
<g><path d="M -0.5,-0.5 C 64.8333,-0.5 130.167,-0.5 195.5,-0.5C 195.5,0.5 195.5,1.5 195.5,2.5C 193.75,7.41918 190.416,10.9192 185.5,13C 177.537,11.5687 171.537,14.2353 167.5,21C 165.285,22.0438 162.952,22.7105 160.5,23C 158.739,25.941 156.072,27.6077 152.5,28C 145.716,34.045 137.716,37.3784 128.5,38C 120.016,44.7442 111.016,50.7442 101.5,56C 91.268,60.4804 80.9347,64.8137 70.5,69C 63.1545,70.3343 56.1545,72.6676 49.5,76C 43.1323,80.5164 36.4656,84.5164 29.5,88C 26.9759,91.6056 23.6426,94.2723 19.5,96C 12.8681,102.568 13.0348,109.068 20,115.5C 19.1629,121.462 21.1629,126.129 26,129.5C 27.6047,132.648 28.6047,135.981 29,139.5C 32.8153,143.072 36.8153,146.405 41,149.5C 41.8037,156.51 42.6371,163.51 43.5,170.5C 42.5769,174.176 41.2435,177.676 39.5,181C 39.8918,190.096 39.8918,199.263 39.5,208.5C 42.1998,223.422 45.1998,238.255 48.5,253C 47.7827,254.531 46.7827,255.864 45.5,257C 46.6292,259.305 46.6292,261.638 45.5,264C 47.0503,266.778 48.0503,269.778 48.5,273C 45.2422,283.953 44.0755,295.12 45,306.5C 44.8422,310.416 46.5089,313.082 50,314.5C 53.3673,322.902 54.5339,331.569 53.5,340.5C 56.2773,344.731 57.944,349.398 58.5,354.5C 57.5,358.5 56.5,362.5 55.5,366.5C 56.5787,369.648 58.412,372.315 61,374.5C 62.4557,378.015 62.6223,381.515 61.5,385C 62.7076,387.914 64.041,390.748 65.5,393.5C 65.2039,396.026 65.0372,398.693 65,401.5C 62.5555,412.112 59.7222,422.612 56.5,433C 58.6695,440.509 62.5028,447.009 68,452.5C 69.6365,455.606 71.1365,458.773 72.5,462C 70.6262,469.182 68.7929,476.348 67,483.5C 51.7255,492.209 46.2255,505.043 50.5,522C 49.3022,527.78 48.4688,533.613 48,539.5C 45.7133,547.351 43.5466,555.185 41.5,563C 42.5914,565.064 42.7581,567.231 42,569.5C 40.6667,572.167 39.3333,574.833 38,577.5C 34.3453,580.989 30.8453,584.655 27.5,588.5C 26.0163,592.39 24.8497,596.39 24,600.5C 20.466,606.925 16.2993,612.925 11.5,618.5C 7.93801,621.108 4.27135,623.441 0.5,625.5C 0.166667,625.5 -0.166667,625.5 -0.5,625.5C -0.5,416.833 -0.5,208.167 -0.5,-0.5 Z"/>
	</g>
</svg>