<svg id="svgContent" version="1.1" width="730" height="509" preserveAspectRatio="none" style="position: relative; width: 730px; height: 509px; margin:auto; user-select: none; cursor: default;"
	xmlns="http://www.w3.org/2000/svg" xmlns:xlink="http://www.w3.org/1999/xlink"
	viewBox="0 0 730 509">
<g id="svgPath">
	<path
		d="M 723.299 4.911 C 715.739 10.506, 709 18.058, 709 20.936 C 709 24.089, 706.585 29.225, 704.032 31.500 C 700.166 34.945, 698.142 40.058, 698.679 45.020 C 698.946 47.484, 698.790 50.470, 698.332 51.656 C 697.598 53.558, 686.569 62.997, 685.075 63.002 C 684.759 63.003, 683.263 64.962, 681.750 67.357 C 679.840 70.380, 679 73.037, 679 76.054 C 679 79.974, 678.512 80.856, 674 85.092 C 671.250 87.674, 669 90.513, 669 91.400 C 669 92.287, 667.875 93.991, 666.500 95.187 C 665.125 96.382, 664 97.946, 664 98.661 C 664 99.377, 662.552 102.898, 660.783 106.486 C 657.884 112.365, 657.684 113.325, 658.767 116.194 C 659.733 118.752, 659.705 119.684, 658.626 120.939 C 657.887 121.797, 656.816 123.850, 656.245 125.500 C 654.557 130.381, 643.381 142.431, 633.058 150.500 C 622.982 158.376, 621.207 160.362, 620.456 164.600 C 620.045 166.916, 618.449 169.921, 616.525 172 C 614.744 173.925, 613.011 176.287, 612.674 177.250 C 612.272 178.401, 611.018 179, 609.007 179 C 606.793 179, 605.682 179.620, 604.977 181.250 C 604.441 182.488, 602.489 185.596, 600.640 188.158 C 598.790 190.721, 595.643 196.721, 593.645 201.492 C 591.648 206.263, 589.111 211.315, 588.007 212.718 C 586.903 214.122, 586 215.773, 586 216.387 C 586 218.768, 576.045 234.259, 571.272 239.306 C 568.510 242.227, 565.563 245.940, 564.723 247.558 C 563.883 249.176, 560.902 252.668, 558.098 255.318 C 555.294 257.968, 553 260.755, 553 261.510 C 553 262.265, 550.271 264.337, 546.936 266.115 C 540.748 269.413, 540.100 270.060, 534 279.046 C 532.075 281.882, 529.238 285.705, 527.697 287.544 C 523.593 292.436, 522.743 296.335, 524.688 301.353 C 525.573 303.634, 526.388 307.075, 526.499 309 C 526.611 310.925, 527.046 313.299, 527.467 314.275 C 527.990 315.486, 527.333 317.391, 525.399 320.275 C 522.832 324.101, 522.585 325.223, 522.778 332.160 C 522.985 339.598, 522.889 339.944, 519.456 344.053 C 516.304 347.825, 515.984 348.731, 516.510 352.392 C 517.268 357.670, 513.937 364.519, 509 367.833 C 505.770 370.002, 504.882 370.127, 497.500 369.463 C 493.100 369.067, 489.050 368.801, 488.500 368.873 C 487.950 368.944, 485.789 369.279, 483.697 369.617 C 481.268 370.009, 478.378 369.658, 475.697 368.645 C 473.389 367.772, 470.600 367.069, 469.500 367.083 C 465.712 367.129, 446.492 364.240, 442 362.949 C 439.525 362.237, 436.693 360.970, 435.707 360.134 C 433.682 358.415, 428.424 356.301, 422.500 354.823 C 412.469 352.321, 407.153 350.584, 402.783 348.379 C 400.189 347.071, 396.459 346, 394.493 346 C 392.528 346, 389.251 345.160, 387.210 344.132 C 381.525 341.270, 354.879 337, 342.706 337 C 336.620 337, 334.424 336.531, 330.399 334.374 C 327.705 332.930, 323.748 330.826, 321.606 329.698 C 318.943 328.296, 314.752 327.424, 308.348 326.940 C 303.198 326.550, 298.336 325.694, 297.544 325.037 C 296.753 324.380, 294.169 323.945, 291.803 324.070 C 289.232 324.206, 285.987 323.557, 283.742 322.460 C 280.484 320.867, 279.152 320.762, 273.742 321.672 C 266.366 322.912, 264.789 322.443, 258.746 317.213 C 251.619 311.045, 246.094 310.708, 235 315.766 C 230.401 317.862, 227.761 318.312, 218.890 318.512 C 206.669 318.789, 201.843 320.064, 199.501 323.639 C 198.251 325.546, 197.268 326.033, 195.542 325.600 C 194.001 325.213, 191.970 325.889, 189.372 327.655 C 187.243 329.102, 183.502 330.968, 181.061 331.802 C 178.620 332.635, 175.087 334.359, 173.210 335.632 C 169.090 338.428, 164.239 339.455, 159.423 338.551 C 156.547 338.012, 155.223 338.348, 152.673 340.264 C 150.928 341.575, 148.600 342.996, 147.500 343.423 C 144.697 344.511, 124.886 349, 122.891 349 C 120.553 349, 118.921 351.315, 116.775 357.671 C 115.747 360.717, 113.914 364.558, 112.703 366.207 C 110.006 369.879, 95.439 381.047, 92 382.080 C 84.920 384.207, 82.110 384.899, 78 385.525 C 74.749 386.020, 71.463 387.733, 66.164 391.694 C 59.701 396.525, 58.902 397.473, 59.451 399.661 C 60.304 403.058, 56.652 408.825, 53.167 409.585 C 51.700 409.905, 49.970 410.328, 49.323 410.524 C 48.676 410.720, 47.259 412.886, 46.175 415.336 C 44.886 418.251, 42.353 421.231, 38.852 423.953 C 35.909 426.242, 32.375 429.821, 31 431.905 C 29.625 433.989, 26.830 437.145, 24.788 438.917 C 22.747 440.690, 20.067 443.796, 18.834 445.820 C 17.600 447.844, 13.744 452.200, 10.264 455.500 C 0.962 464.323, -0.414 468.883, 0.530 487.771 C 1.145 500.057, 1.550 502.520, 3.412 505.284 L 5.580 508.500 367.708 508.751 L 729.837 509.003 730.168 496.251 C 730.351 489.238, 730.275 374.785, 730 241.911 L 729.500 0.323 723.299 4.911 M 0.343 479.500 C 0.346 483.900, 0.522 485.576, 0.733 483.224 C 0.945 480.872, 0.942 477.272, 0.727 475.224 C 0.512 473.176, 0.339 475.100, 0.343 479.500"
		stroke="none" fill="#040404" fill-rule="evenodd"></path>
	</g>
</svg>