<svg id="svgContent" version="1.1" width="90" height="979" preserveAspectRatio="none"
	style="position: relative; width: 90px; height: 979px; margin:auto; user-select: none; cursor: default;"
	xmlns="http://www.w3.org/2000/svg" xmlns:xlink="http://www.w3.org/1999/xlink" viewBox="0 0 90 979">
<g id="svgPath">
	<path
		d="M 58.242 4.942 C 41.600 7.550, 27.746 9.920, 27.457 10.210 C 27.167 10.499, 27.428 12.708, 28.037 15.118 C 28.645 17.528, 29.097 20.954, 29.041 22.731 C 28.986 24.508, 29.900 27.843, 31.072 30.142 C 32.630 33.195, 33.194 36.098, 33.164 40.911 C 33.096 51.978, 33.988 56.884, 36.576 59.676 C 38.735 62.006, 38.816 62.425, 37.474 64.341 C 35.509 67.146, 35.616 68, 37.933 68 C 40.331 68, 41.346 70.930, 41.208 77.460 C 41.151 80.188, 41.486 82.888, 41.954 83.460 C 43.379 85.204, 44.402 98, 43.116 98 C 41.491 98, 41.750 101.690, 43.571 104.468 C 44.768 106.294, 44.887 107.343, 44.071 108.867 C 42.613 111.591, 42.799 120.825, 44.385 124.500 C 45.467 127.008, 45.444 127.865, 44.242 129.724 C 42.587 132.284, 42.904 138.920, 45.032 146.240 C 46.151 150.089, 46.176 151.625, 45.165 154.420 C 44.074 157.437, 44.172 158.328, 45.961 161.665 C 47.082 163.758, 48 166.512, 48 167.785 C 48 170.516, 50.224 175.111, 52.434 176.945 C 53.295 177.660, 54 179.282, 54 180.550 C 54 182.654, 57.401 186.300, 60.248 187.249 C 61.744 187.748, 59.620 193.070, 55.797 198.400 C 52.932 202.395, 51.927 209.219, 54.014 210.509 C 54.572 210.854, 55.943 212.928, 57.061 215.120 L 59.094 219.104 56.914 220.869 C 55.054 222.375, 54.907 222.958, 55.916 224.843 C 56.891 226.665, 56.768 227.531, 55.215 229.776 C 52.174 234.173, 50 240.713, 50 245.461 C 50 247.893, 49.550 250.160, 49 250.500 C 48.450 250.840, 48 252.456, 48 254.090 C 48 255.810, 47.368 257.305, 46.500 257.638 C 45.675 257.955, 45 258.825, 45 259.572 C 45 260.319, 44.100 261.411, 43 262 C 40.337 263.425, 40.337 267, 43 267 C 45.366 267, 45.589 269.171, 43.544 272.293 C 42.054 274.567, 41.862 275.705, 41.861 282.270 C 41.861 284.344, 41.220 287.269, 40.436 288.770 C 39.653 290.272, 39.010 292.428, 39.006 293.563 C 39.003 294.698, 37.650 296.919, 36 298.500 C 34.350 300.081, 33 302.190, 33 303.187 C 33 304.184, 32.550 305, 32 305 C 30.658 305, 30.724 308.324, 32.094 309.694 C 33.265 310.865, 32.144 313.655, 25.545 326 C 23.634 329.575, 22.055 332.840, 22.035 333.257 C 22.016 333.673, 23.129 334.995, 24.510 336.196 C 26.605 338.018, 26.921 338.966, 26.423 341.939 C 25.424 347.894, 24.975 348.873, 22.949 349.516 C 20.230 350.379, 20.518 353.454, 23.500 355.408 C 27.036 357.725, 26.624 359.449, 21.753 362.720 C 18.816 364.692, 16.317 367.723, 13.657 372.536 C 8.721 381.468, 7.976 386.124, 10.860 390.024 C 13.489 393.581, 13.513 394.471, 11.069 397.903 C 10.007 399.394, 8.265 402.839, 7.197 405.557 C 6.129 408.276, 4.925 411.288, 4.521 412.250 C 3.986 413.524, 4.255 414, 5.508 414 C 7.127 414, 7.125 414.161, 5.467 416.691 C 3.286 420.020, 1.898 425.819, 3.104 426.564 C 4.456 427.400, 4.114 432.177, 2.500 435 C 0.453 438.581, 0.683 442.968, 3.129 446.981 C 4.940 449.951, 5.167 451.462, 4.680 457.275 C 4.320 461.567, 3.349 465.317, 2.055 467.412 C -0.628 471.752, -0.549 472.962, 2.867 479.779 C 7.018 488.064, 7.702 494.145, 4.998 498.727 C 3.822 500.721, 3.068 503.152, 3.323 504.129 C 3.579 505.105, 3.297 506.068, 2.696 506.268 C 1.948 506.517, 2.058 507.711, 3.049 510.066 C 3.843 511.955, 4.548 515.750, 4.616 518.500 C 4.779 525.081, 5.673 529.901, 7.035 531.543 C 7.831 532.501, 7.837 533.437, 7.055 534.896 C 6.336 536.241, 6.277 538.278, 6.881 540.966 C 7.439 543.451, 7.429 545.235, 6.854 545.590 C 5.715 546.294, 6.715 549.904, 8.667 552.132 C 9.582 553.177, 9.860 554.712, 9.437 556.395 C 9.050 557.938, 9.275 559.627, 9.982 560.478 C 11.460 562.260, 10.397 569.745, 8.380 571.763 C 6.612 573.531, 6.588 578.628, 8.345 579.302 C 9.986 579.932, 12.469 588.335, 11.647 590.477 C 11.321 591.328, 11.555 593.125, 12.169 594.471 C 13.071 596.451, 12.938 597.445, 11.473 599.681 C 10.477 601.201, 9.066 605.290, 8.337 608.768 C 6.930 615.480, 7.085 616.192, 11.760 624.500 C 12.843 626.424, 13.400 629.473, 13.315 633 C 13.242 636.025, 13.144 640.712, 13.098 643.414 C 13.052 646.117, 12.359 649.330, 11.557 650.553 C 9.606 653.530, 10.085 659.858, 12.388 661.542 C 14.429 663.034, 13.890 664.472, 10.187 667.409 C 7.622 669.444, 7.636 668.876, 9.845 681.299 C 10.314 683.938, 11.216 686.616, 11.849 687.249 C 12.482 687.882, 13 690.110, 13 692.200 C 13 694.290, 13.407 696, 13.905 696 C 14.403 696, 14.567 697.810, 14.270 700.022 C 13.876 702.958, 14.184 704.546, 15.408 705.898 C 16.331 706.918, 17.327 709.495, 17.622 711.626 C 17.918 713.757, 18.548 716.400, 19.023 717.500 C 19.497 718.600, 20.316 724, 20.842 729.500 C 21.368 735, 22.342 741.525, 23.007 744 C 24.511 749.597, 24.434 755.114, 22.838 756.100 C 21.899 756.680, 21.914 757.191, 22.903 758.383 C 23.687 759.328, 23.928 761.050, 23.530 762.864 C 23.174 764.484, 23.326 766.084, 23.868 766.418 C 24.425 766.763, 24.625 769.301, 24.328 772.264 C 23.964 775.894, 24.332 778.880, 25.528 782 C 26.476 784.475, 27.308 788.601, 27.376 791.169 C 27.466 794.550, 28.135 796.515, 29.802 798.289 C 31.541 800.140, 31.940 801.392, 31.433 803.410 C 30.959 805.301, 31.296 806.670, 32.590 808.099 C 33.987 809.643, 34.363 811.477, 34.188 815.899 C 34.016 820.267, 34.416 822.268, 35.828 824.090 C 36.855 825.415, 38.486 829.200, 39.452 832.500 C 40.419 835.800, 41.456 839.175, 41.758 840 C 42.060 840.825, 42.355 841.950, 42.415 842.500 C 42.674 844.903, 46.215 850.017, 48.985 851.989 C 50.643 853.170, 52 854.927, 52 855.894 C 52 856.860, 53.149 858.730, 54.552 860.049 C 56.316 861.706, 56.937 863.115, 56.562 864.609 C 56.247 865.865, 56.626 867.275, 57.467 867.973 C 58.393 868.741, 58.716 870.172, 58.361 871.943 C 57.972 873.890, 58.266 874.888, 59.351 875.305 C 60.201 875.630, 61.643 877.342, 62.556 879.108 C 64.114 882.121, 64.105 882.648, 62.403 887.654 C 60.988 891.817, 60.854 893.254, 61.795 894.195 C 62.458 894.858, 63 896.431, 63 897.692 C 63 898.952, 63.868 900.525, 64.930 901.188 C 66.553 902.202, 66.768 903.161, 66.286 907.231 C 65.819 911.178, 66.048 912.314, 67.528 913.397 C 68.600 914.181, 69.465 916.280, 69.642 918.527 C 69.825 920.850, 70.880 923.335, 72.354 924.915 C 75.824 928.634, 78.968 936.306, 77.845 938.313 C 76.824 940.137, 80.738 956.483, 83.397 961.500 C 84.272 963.150, 84.990 965.107, 84.994 965.849 C 84.997 966.591, 85.633 968.616, 86.406 970.349 C 87.180 972.082, 88.192 974.850, 88.656 976.500 C 89.691 980.180, 90.594 558.616, 90.240 236.750 C 90.097 106.537, 89.647 0.045, 89.240 0.100 C 88.833 0.155, 74.884 2.334, 58.242 4.942 M 0.195 472.500 C 0.215 474.150, 0.439 474.704, 0.693 473.731 C 0.947 472.758, 0.930 471.408, 0.656 470.731 C 0.382 470.054, 0.175 470.850, 0.195 472.500"
		stroke="none" fill="#040404" fill-rule="evenodd"></path>
	</g>
</svg>