<svg id="svgContent" version="1.1" width="94" height="814" style="position: relative; width: 94px; height: 814px; margin:auto; user-select: none; cursor: default;" xmlns="http://www.w3.org/2000/svg" xmlns:xlink="http://www.w3.org/1999/xlink" viewBox="0 0 94 814">
<g id="svgPath">
	<path
		d="M 85.466 5.468 C 84.520 8.476, 82.180 12.767, 80.265 15.004 C 77.570 18.152, 76.881 19.735, 77.215 22.011 C 77.553 24.315, 76.982 25.577, 74.573 27.848 C 72.883 29.442, 70.224 31.047, 68.664 31.414 C 67.104 31.781, 64.643 33.266, 63.195 34.714 C 61.747 36.162, 57.428 38.407, 53.598 39.703 C 49.768 40.999, 46.023 42.566, 45.276 43.186 C 44.516 43.816, 41.121 44.222, 37.567 44.107 C 31.590 43.913, 30.810 44.164, 24.357 48.347 C 15.781 53.908, 12.983 57.635, 11.950 64.877 C 11.184 70.255, 9.889 75.927, 7.913 82.571 C 7.411 84.260, 7 87.647, 7 90.098 C 7 92.550, 6.316 95.532, 5.480 96.725 C 4.414 98.247, 4.149 100.081, 4.594 102.860 C 5.117 106.134, 4.859 107.140, 3.114 108.635 C 0.022 111.282, 0.200 119.943, 3.500 127.404 C 6.618 134.455, 6.856 143.519, 4.082 149.627 C 3.052 151.896, 1.711 154.060, 1.104 154.436 C -0.672 155.533, -0.196 158.291, 2.976 165.288 C 4.613 168.898, 6.257 173.753, 6.628 176.078 C 7 178.402, 8.124 181.124, 9.127 182.127 C 10.129 183.129, 11.193 185.198, 11.490 186.725 C 11.788 188.251, 12.475 191.419, 13.016 193.764 C 13.557 196.110, 14 199.121, 14 200.455 C 14 201.790, 14.468 203.171, 15.041 203.525 C 15.613 203.879, 15.805 205.038, 15.468 206.100 C 14.654 208.666, 16.590 214.319, 19.045 216.541 C 21.460 218.726, 23.605 222.904, 24.539 227.240 C 26.106 234.517, 28.418 236.729, 36.238 238.435 C 38.134 238.848, 39.607 240.270, 41.029 243.056 C 42.158 245.269, 44.139 247.562, 45.430 248.150 C 46.722 248.739, 48.269 250.296, 48.868 251.610 C 49.467 252.925, 50.581 254, 51.343 254 C 52.105 254, 53.950 255.763, 55.443 257.918 C 57.242 260.514, 60.440 263.034, 64.924 265.391 C 69.288 267.684, 72.625 270.288, 74.322 272.723 C 77.582 277.405, 91.376 291, 92.865 291 C 94.121 291, 94.670 205.215, 94.226 78.250 L 93.953 0 90.569 -0 C 87.347 -0, 87.104 0.260, 85.466 5.468 M 0.195 157.500 C 0.215 159.150, 0.439 159.704, 0.693 158.731 C 0.947 157.758, 0.930 156.408, 0.656 155.731 C 0.382 155.054, 0.175 155.850, 0.195 157.500 M 92.548 456.250 C 92.250 458.038, 92.075 460.175, 92.160 461 C 92.527 464.555, 91.905 467.953, 90.658 469.199 C 87.917 471.940, 86.999 475.044, 86.965 481.684 C 86.902 493.956, 83.467 505.029, 79 507.366 C 77.808 507.990, 75.693 510.750, 74.299 513.500 C 72.906 516.250, 71.369 519.281, 70.883 520.236 C 70.397 521.191, 70 523.349, 70 525.032 C 70 526.983, 69.070 529.021, 67.432 530.659 C 64.024 534.067, 63 537.038, 63 543.518 C 63 548.598, 62.772 549.089, 59.016 552.107 C 56.288 554.300, 54.831 556.385, 54.392 558.726 C 54.039 560.605, 52.569 563.547, 51.125 565.262 C 48.528 568.349, 48.499 568.565, 48.361 585.611 L 48.222 602.840 44.980 606.875 C 43.197 609.094, 40.078 612.060, 38.048 613.466 C 31.759 617.825, 30.391 620.538, 29.608 630.206 C 28.867 639.349, 29.753 642.890, 33.571 646.059 C 38.782 650.383, 40.710 664.639, 37.041 671.719 C 35.500 674.692, 34.890 678.811, 34.186 691 C 33.693 699.525, 33.194 707.625, 33.076 709 C 32.365 717.333, 32.854 719.760, 36.847 727.699 C 40.009 733.986, 40.830 736.598, 40.369 738.905 C 39.798 741.762, 41.088 746.883, 44.804 756.500 C 45.654 758.700, 48.921 763.200, 52.064 766.500 C 55.207 769.800, 58.949 774.397, 60.380 776.715 C 61.811 779.034, 64.581 782.409, 66.535 784.215 C 68.490 786.022, 73.837 792, 78.417 797.500 C 82.998 803, 88.378 808.973, 90.373 810.774 L 94 814.049 94 633.524 C 94 534.236, 93.795 453, 93.545 453 C 93.295 453, 92.846 454.462, 92.548 456.250"
		stroke="none" fill="#e4e4e4" fill-rule="evenodd"></path>
</g>
</svg>