<svg id="svgContent" version="1.1" width="41" height="929" style="position: relative; width: 41px; height: 929px; margin:auto; user-select: none; cursor: default;" xmlns="http://www.w3.org/2000/svg" xmlns:xlink="http://www.w3.org/1999/xlink" viewBox="0 0 41 929">
<g id="svgPath">
	<path
		d="M 0 464.500 C 0 876.722, 0.169 929, 1.500 929 C 2.597 929, 3.002 927.859, 3.006 924.750 C 3.009 922.413, 4.359 916.282, 6.006 911.127 C 7.653 905.973, 9 901.055, 9 900.201 C 9 899.346, 10.639 896.267, 12.642 893.359 C 14.998 889.937, 16.214 887.088, 16.086 885.286 C 15.427 875.996, 15.827 872.180, 17.949 867.500 C 19.688 863.666, 20.267 860.387, 20.433 853.439 C 20.552 848.455, 20.997 843.813, 21.423 843.124 C 21.849 842.435, 22.553 837.513, 22.987 832.186 C 23.421 826.859, 24.350 819.419, 25.052 815.652 C 26.035 810.377, 26.065 807.736, 25.184 804.152 C 22.886 794.813, 21.956 750.963, 24.003 748.497 C 24.826 747.505, 25.319 738.626, 25.623 719.306 C 25.874 703.335, 26.472 691.128, 27.030 690.570 C 27.564 690.036, 28.003 688.003, 28.006 686.050 C 28.010 684.098, 28.692 681.196, 29.524 679.602 C 30.437 677.850, 30.809 675.477, 30.463 673.602 C 30.141 671.854, 30.570 668.590, 31.445 666.124 C 32.300 663.718, 33 659.697, 33 657.190 C 33 654.683, 33.741 649.989, 34.648 646.759 C 36.077 641.666, 36.148 639.267, 35.186 628.693 C 34.519 621.374, 34.420 614.901, 34.938 612.500 C 35.412 610.300, 36.097 601.975, 36.460 594 C 36.824 586.025, 37.317 575.288, 37.556 570.141 C 37.796 564.993, 38.440 558.018, 38.988 554.641 C 39.536 551.263, 40.099 545.125, 40.239 541 C 40.378 536.875, 40.721 622.375, 41 731 C 41.292 844.801, 41.507 731.649, 41.507 464 C 41.506 118.836, 41.377 65.783, 41.003 257.500 L 40.500 515.500 38.250 507.380 C 37.013 502.914, 36 498.531, 36 497.642 C 36 496.752, 34.609 491.681, 32.908 486.372 C 30.594 479.149, 29.968 475.686, 30.419 472.610 C 30.750 470.350, 31.178 462.425, 31.369 455 C 31.669 443.323, 31.446 440.825, 29.720 436.500 C 28.018 432.237, 27.681 428.699, 27.431 412.500 C 27.270 402.050, 26.638 388.775, 26.027 383 C 24.575 369.277, 25.604 319.672, 27.584 308 C 29.171 298.639, 31.537 289.975, 33.654 285.773 C 34.585 283.925, 35.337 276.034, 35.987 261.283 C 36.903 240.502, 36.856 239.334, 34.948 235.394 C 33.164 231.706, 32.927 228.935, 32.725 209.383 C 32.547 192.076, 32.186 186.952, 31 184.881 C 26.078 176.288, 24.926 173.517, 23.570 167.016 C 22.013 159.545, 22.657 153.797, 25.982 145.500 C 26.643 143.850, 27.583 140.025, 28.070 137 C 29.006 131.188, 32.657 117.544, 35.294 110 C 38.212 101.654, 40.232 90.035, 39.553 85.505 C 39.182 83.029, 37.218 78.553, 34.992 75.108 C 28.006 64.300, 28.025 64.367, 28.886 53.404 C 29.346 47.544, 30.341 42.201, 31.322 40.318 C 34.937 33.383, 37.975 21.562, 37.956 14.500 C 37.939 8.453, 37.593 7.109, 35.409 4.626 C 33.034 1.925, 32.236 1.701, 22.191 0.926 C 16.311 0.473, 8.912 0.079, 5.750 0.051 L 0 0 0 464.500 M 0.496 465 C 0.496 720.475, 0.610 824.987, 0.750 697.250 C 0.890 569.512, 0.890 360.487, 0.750 232.750 C 0.610 105.012, 0.496 209.525, 0.496 465"
		stroke="none" fill="#040404" fill-rule="evenodd"></path>
</g>
</svg>