<svg id="svgContent" version="1.1" width="177" preserveAspectRatio="none"	xmlns="http://www.w3.org/2000/svg" xmlns:xlink="http://www.w3.org/1999/xlink" viewBox="0 0 177 897">
	<g id="svgPath">
		<path
			d="M 0.082 700.750 L 0 897 64.378 897 L 128.756 897 131.052 890.861 C 132.315 887.484, 133.382 882.880, 133.424 880.628 C 133.495 876.810, 133.265 876.458, 130 875.393 C 127.040 874.427, 126.449 873.731, 126.169 870.886 C 125.987 869.036, 126.420 865.757, 127.132 863.600 L 128.427 859.677 122.713 854.567 C 119.571 851.757, 117 848.735, 117 847.851 C 117 846.968, 116.325 845.685, 115.500 845 C 114.675 844.315, 114 843.119, 114 842.342 C 114 841.565, 113.283 839.835, 112.407 838.498 C 111.282 836.782, 111.003 834.944, 111.457 832.255 C 112.006 829.003, 111.726 828.091, 109.550 826.047 C 107.309 823.942, 107 822.840, 107 816.962 C 107 813.283, 107.458 807.859, 108.017 804.908 C 109.197 798.687, 107.091 786.707, 103.880 781.382 C 101.866 778.041, 101.287 769.559, 103 768.500 C 104.438 767.612, 104.235 758.283, 102.750 756.992 C 102.063 756.394, 99.925 755.106, 98 754.129 C 94.875 752.542, 89.876 745.359, 87.473 739 C 87.161 738.175, 85.826 735.250, 84.507 732.500 C 79.698 722.477, 76.786 713.990, 77.364 711.686 C 78.090 708.795, 74.051 700.832, 69.389 695.958 C 67.085 693.550, 66 691.460, 66 689.430 C 66 687.682, 65.171 685.735, 64 684.732 C 62.643 683.570, 62 681.782, 62 679.170 C 62 676.068, 61.530 675.107, 59.579 674.218 C 57.808 673.411, 57.302 672.560, 57.697 671.052 C 57.993 669.918, 57.686 668.326, 57.013 667.516 C 56.087 666.400, 56.059 665.271, 56.895 662.872 C 58.718 657.642, 58.262 653.594, 55.562 651.058 C 54.173 649.753, 52.231 645.827, 51.048 641.931 C 49.769 637.723, 48.134 634.507, 46.794 633.569 C 45.598 632.730, 44.142 630.930, 43.559 629.567 C 42.977 628.205, 40.936 626.047, 39.024 624.771 C 36.665 623.198, 34.937 620.853, 33.650 617.476 C 30.273 608.618, 27.566 603.408, 24.706 600.260 C 23.292 598.704, 22.642 596.551, 22.577 593.203 C 22.523 590.454, 21.735 587.245, 20.741 585.728 C 19.784 584.266, 19 581.558, 19 579.709 C 19 577.418, 18.205 575.602, 16.500 574 C 15.050 572.638, 14 570.535, 14 568.995 C 14 567.534, 12.859 564.125, 11.464 561.419 C 9.546 557.700, 8.808 554.454, 8.438 548.112 C 8.168 543.499, 7.676 539.285, 7.345 538.749 C 7.013 538.213, 6.797 535.399, 6.864 532.498 C 6.939 529.236, 6.252 525.556, 5.066 522.861 C 4.010 520.462, 2.475 515.350, 1.655 511.500 C 0.313 505.203, 0.155 524.209, 0.082 700.750"
			stroke="none" fill="#e4e4e4" fill-rule="evenodd"></path>
	</g>
</svg>